<?xml version="1.0" encoding="UTF-8" standalone="no"?>
<!DOCTYPE svg PUBLIC "-//W3C//DTD SVG 1.1//EN" "http://www.w3.org/Graphics/SVG/1.1/DTD/svg11.dtd">
<svg width="100%" height="100%" viewBox="0 0 1024 1024" version="1.1" xmlns="http://www.w3.org/2000/svg" xmlns:xlink="http://www.w3.org/1999/xlink" xml:space="preserve" xmlns:serif="http://www.serif.com/" style="fill-rule:evenodd;clip-rule:evenodd;stroke-linejoin:round;stroke-miterlimit:2;">
    <g>
        <path d="M512.401,193.173L796.045,8.341L512,8.341L0,407.735L0,527.078L512.401,193.173" style="fill:url(#_Linear1);"/>
        <path d="M946.825,302.349L512,8.341L800.631,8.341L1024,178.995L1024,354.53L946.825,302.349" style="fill:url(#_Linear2);"/>
        <g>
            <g>
                <g>
                    <clipPath id="_clip3">
                        <rect x="152" y="160.341" width="720" height="720"/>
                    </clipPath>
                    <g clip-path="url(#_clip3)">
                        <path d="M12.851,344.478L239.552,117.781L310.263,188.493L83.563,415.189L12.851,344.478Z" style="fill:url(#_Linear4);"/>
                        <path d="M76.642,139.268L303.343,-87.433L374.054,-16.721L147.354,209.98L76.642,139.268Z" style="fill:url(#_Linear5);"/>
                        <path d="M239.552,117.781L466.249,-108.919L536.96,-38.208L310.263,188.493L239.552,117.781Z" style="fill:url(#_Linear6);"/>
                        <path d="M12.851,344.478L239.552,117.781L310.263,188.493L83.563,415.189L12.851,344.478Z" style="fill:url(#_Linear7);"/>
                        <path d="M76.642,139.268L303.343,-87.433L374.054,-16.721L147.354,209.98L76.642,139.268Z" style="fill:url(#_Linear8);"/>
                        <path d="M239.552,117.781L466.249,-108.919L536.96,-38.208L310.263,188.493L239.552,117.781Z" style="fill:url(#_Linear9);"/>
                        <path d="M22.366,476.122L249.062,249.425L319.774,320.137L93.077,546.833L22.366,476.122Z" style="fill:url(#_Linear10);"/>
                        <path d="M185.271,454.639L411.972,227.938L482.684,298.65L255.983,525.346L185.271,454.639Z" style="fill:url(#_Linear11);"/>
                        <path d="M-41.425,681.335L185.271,454.639L255.983,525.346L29.286,752.047L-41.425,681.335Z" style="fill:url(#_Linear12);"/>
                        <path d="M249.062,249.425L475.763,22.729L546.475,93.44L319.774,320.137L249.062,249.425Z" style="fill:url(#_Linear13);"/>
                        <path d="M411.972,227.938L638.669,1.242L709.38,71.953L482.684,298.65L411.972,227.938Z" style="fill:url(#_Linear14);"/>
                        <path d="M133.722,647.347L360.418,420.651L431.13,491.358L204.433,718.059L133.722,647.347Z" style="fill:url(#_Linear15);"/>
                        <path d="M296.627,625.86L523.328,399.164L594.035,469.871L367.339,696.572L296.627,625.86Z" style="fill:url(#_Linear16);"/>
                        <path d="M69.931,852.557L296.627,625.86L367.339,696.572L140.642,923.268L69.931,852.557Z" style="fill:url(#_Linear17);"/>
                        <path d="M71.625,990.605L300.902,761.327L372.416,832.845L143.138,1062.12L71.625,990.605Z" style="fill:url(#_Linear18);"/>
                        <path d="M-92.629,874.573L134.067,647.872L204.779,718.583L-21.918,945.284L-92.629,874.573Z" style="fill:url(#_Linear19);"/>
                        <path d="M587.119,193.95L813.815,-32.747L884.527,37.965L657.83,264.661L587.119,193.95Z" style="fill:url(#_Linear20);"/>
                        <path d="M360.418,420.646L587.119,193.95L657.826,264.661L431.13,491.358L360.418,420.646Z" style="fill:url(#_Linear21);"/>
                        <path d="M523.328,399.164L750.025,172.463L820.736,243.174L594.035,469.871L523.328,399.164Z" style="fill:url(#_Linear22);"/>
                        <path d="M746.846,175.642L973.547,-51.055L1044.25,19.657L817.557,246.353L746.846,175.642Z" style="fill:url(#_Linear23);"/>
                        <path d="M298.957,764.689L525.658,537.988L596.369,608.7L369.668,835.401L298.957,764.689Z" style="fill:url(#_Linear24);"/>
                        <path d="M461.867,743.202L688.563,516.506L759.275,587.217L532.578,813.914L461.867,743.202Z" style="fill:url(#_Linear25);"/>
                        <path d="M235.166,969.903L461.867,743.202L532.574,813.914L305.877,1040.61L235.166,969.903Z" style="fill:url(#_Linear26);"/>
                        <path d="M752.354,311.292L979.055,84.595L1049.76,155.302L823.066,382.003L752.354,311.292Z" style="fill:url(#_Linear27);"/>
                        <path d="M525.658,537.988L752.354,311.292L823.066,382.003L596.369,608.7L525.658,537.988Z" style="fill:url(#_Linear28);"/>
                        <path d="M688.563,516.501L915.26,289.805L985.971,360.516L759.275,587.213L688.563,516.501Z" style="fill:url(#_Linear29);"/>
                        <path d="M390.118,955.247L616.815,728.546L687.526,799.258L460.83,1025.95L390.118,955.247Z" style="fill:url(#_Linear30);"/>
                        <path d="M553.024,933.76L779.725,707.059L850.436,777.771L623.735,1004.47L553.024,933.76Z" style="fill:url(#_Linear31);"/>
                        <path d="M843.516,501.85L1070.21,275.149L1140.92,345.86L914.227,572.561L843.516,501.85Z" style="fill:url(#_Linear32);"/>
                        <path d="M616.819,728.546L843.516,501.85L914.227,572.561L687.526,799.258L616.819,728.546Z" style="fill:url(#_Linear33);"/>
                        <path d="M779.725,707.059L1006.42,480.363L1077.13,551.074L850.436,777.771L779.725,707.059Z" style="fill:url(#_Linear34);"/>
                        <path d="M390.118,955.247L616.815,728.546L687.526,799.258L460.83,1025.95L390.118,955.247Z" style="fill:url(#_Linear35);"/>
                        <path d="M553.024,933.76L779.725,707.059L850.436,777.771L623.735,1004.47L553.024,933.76Z" style="fill:url(#_Linear36);"/>
                        <path d="M843.516,501.85L1070.21,275.149L1140.92,345.86L914.227,572.561L843.516,501.85Z" style="fill:url(#_Linear37);"/>
                        <path d="M616.819,728.546L843.516,501.85L914.227,572.561L687.526,799.258L616.819,728.546Z" style="fill:url(#_Linear38);"/>
                        <path d="M779.725,707.059L1006.42,480.363L1077.13,551.074L850.436,777.771L779.725,707.059Z" style="fill:url(#_Linear39);"/>
                        <path d="M562.539,1065.4L789.235,838.707L859.947,909.414L633.25,1136.12L562.539,1065.4Z" style="fill:url(#_Linear40);"/>
                        <path d="M789.239,838.707L1015.94,612.006L1086.65,682.718L859.947,909.414L789.239,838.707Z" style="fill:url(#_Linear41);"/>
                    </g>
                </g>
            </g>
        </g>
        <path d="M688.563,516.501L1024,178.995L1024,354.295L759.275,587.213L688.563,516.501Z" style="fill:url(#_Linear42);"/>
        <g>
            <path d="M452.89,527.078C490.432,527.078 518.178,535.433 536.124,551.97C554.069,568.512 563.042,591.569 563.042,621.06C563.042,638.605 559.484,655.142 552.358,670.601C545.229,686.054 533.453,698.586 517.009,708.194C500.57,717.798 478.234,722.56 450.014,722.56L425.353,722.56L425.353,825.318L355.482,825.318L355.482,527.078L452.89,527.078ZM450.428,585.139L425.353,585.139L425.353,664.499L443.849,664.499C457.822,664.499 469.397,661.325 478.579,654.895C487.761,648.546 492.348,637.935 492.348,623.147C492.348,610.953 488.922,601.51 482.074,594.995C475.226,588.395 464.67,585.139 450.428,585.139Z" style="fill:white;fill-rule:nonzero;"/>
            <path d="M711.834,527.078C749.376,527.078 777.118,535.433 795.063,551.97C813.009,568.512 821.982,591.569 821.982,621.06C821.982,638.605 818.423,655.142 811.298,670.601C804.169,686.054 792.393,698.586 775.949,708.194C759.509,717.798 737.173,722.56 708.954,722.56L684.292,722.56L684.292,825.318L614.421,825.318L614.421,527.078L711.834,527.078ZM709.367,585.139L684.292,585.139L684.292,664.499L702.788,664.499C716.766,664.499 728.337,661.325 737.519,654.895C746.701,648.546 751.287,637.935 751.287,623.147C751.287,610.953 747.861,601.51 741.013,594.995C734.165,588.395 723.61,585.139 709.367,585.139Z" style="fill:white;fill-rule:nonzero;"/>
        </g>
        <path d="M465.067,880.341L447.245,1015.66L303.727,992.542L0,527.078L0,408.068L465.067,880.341Z" style="fill:url(#_Linear43);"/>
    </g>
    <defs>
        <linearGradient id="_Linear1" x1="0" y1="0" x2="1" y2="0" gradientUnits="userSpaceOnUse" gradientTransform="matrix(237.865,-214.703,214.703,237.865,405.713,242.18)"><stop offset="0" style="stop-color:rgb(125,70,216);stop-opacity:1"/><stop offset="1" style="stop-color:rgb(0,65,241);stop-opacity:1"/></linearGradient>
        <linearGradient id="_Linear2" x1="0" y1="0" x2="1" y2="0" gradientUnits="userSpaceOnUse" gradientTransform="matrix(-264.172,-213.444,213.444,-264.172,944.875,240.124)"><stop offset="0" style="stop-color:rgb(49,120,198);stop-opacity:1"/><stop offset="1" style="stop-color:rgb(0,65,241);stop-opacity:1"/></linearGradient>
        <linearGradient id="_Linear4" x1="0" y1="0" x2="1" y2="0" gradientUnits="userSpaceOnUse" gradientTransform="matrix(226.698,-226.698,226.698,226.698,48.2091,379.836)"><stop offset="0" style="stop-color:rgb(49,120,198);stop-opacity:1"/><stop offset="1" style="stop-color:rgb(92,158,255);stop-opacity:1"/></linearGradient>
        <linearGradient id="_Linear5" x1="0" y1="0" x2="1" y2="0" gradientUnits="userSpaceOnUse" gradientTransform="matrix(226.698,-226.698,226.698,226.698,112,174.622)"><stop offset="0" style="stop-color:rgb(49,120,198);stop-opacity:1"/><stop offset="1" style="stop-color:rgb(92,158,255);stop-opacity:1"/></linearGradient>
        <linearGradient id="_Linear6" x1="0" y1="0" x2="1" y2="0" gradientUnits="userSpaceOnUse" gradientTransform="matrix(226.698,-226.698,226.698,226.698,274.906,153.135)"><stop offset="0" style="stop-color:rgb(49,120,198);stop-opacity:1"/><stop offset="1" style="stop-color:rgb(92,158,255);stop-opacity:1"/></linearGradient>
        <linearGradient id="_Linear7" x1="0" y1="0" x2="1" y2="0" gradientUnits="userSpaceOnUse" gradientTransform="matrix(226.698,-226.698,226.698,226.698,48.2091,379.836)"><stop offset="0" style="stop-color:rgb(49,120,198);stop-opacity:1"/><stop offset="1" style="stop-color:rgb(92,158,255);stop-opacity:1"/></linearGradient>
        <linearGradient id="_Linear8" x1="0" y1="0" x2="1" y2="0" gradientUnits="userSpaceOnUse" gradientTransform="matrix(226.698,-226.698,226.698,226.698,112,174.622)"><stop offset="0" style="stop-color:rgb(49,120,198);stop-opacity:1"/><stop offset="1" style="stop-color:rgb(92,158,255);stop-opacity:1"/></linearGradient>
        <linearGradient id="_Linear9" x1="0" y1="0" x2="1" y2="0" gradientUnits="userSpaceOnUse" gradientTransform="matrix(226.698,-226.698,226.698,226.698,274.906,153.135)"><stop offset="0" style="stop-color:rgb(49,120,198);stop-opacity:1"/><stop offset="1" style="stop-color:rgb(92,158,255);stop-opacity:1"/></linearGradient>
        <linearGradient id="_Linear10" x1="0" y1="0" x2="1" y2="0" gradientUnits="userSpaceOnUse" gradientTransform="matrix(226.698,-226.698,226.698,226.698,57.7195,511.479)"><stop offset="0" style="stop-color:rgb(49,120,198);stop-opacity:1"/><stop offset="1" style="stop-color:rgb(92,158,255);stop-opacity:1"/></linearGradient>
        <linearGradient id="_Linear11" x1="0" y1="0" x2="1" y2="0" gradientUnits="userSpaceOnUse" gradientTransform="matrix(226.698,-226.698,226.698,226.698,220.629,489.993)"><stop offset="0" style="stop-color:rgb(49,120,198);stop-opacity:1"/><stop offset="1" style="stop-color:rgb(92,158,255);stop-opacity:1"/></linearGradient>
        <linearGradient id="_Linear12" x1="0" y1="0" x2="1" y2="0" gradientUnits="userSpaceOnUse" gradientTransform="matrix(226.698,-226.698,226.698,226.698,-6.0672,716.689)"><stop offset="0" style="stop-color:rgb(49,120,198);stop-opacity:1"/><stop offset="1" style="stop-color:rgb(92,158,255);stop-opacity:1"/></linearGradient>
        <linearGradient id="_Linear13" x1="0" y1="0" x2="1" y2="0" gradientUnits="userSpaceOnUse" gradientTransform="matrix(226.698,-226.698,226.698,226.698,284.42,284.779)"><stop offset="0" style="stop-color:rgb(49,120,198);stop-opacity:1"/><stop offset="1" style="stop-color:rgb(92,158,255);stop-opacity:1"/></linearGradient>
        <linearGradient id="_Linear14" x1="0" y1="0" x2="1" y2="0" gradientUnits="userSpaceOnUse" gradientTransform="matrix(226.698,-226.698,226.698,226.698,447.326,263.296)"><stop offset="0" style="stop-color:rgb(49,120,198);stop-opacity:1"/><stop offset="1" style="stop-color:rgb(92,158,255);stop-opacity:1"/></linearGradient>
        <linearGradient id="_Linear15" x1="0" y1="0" x2="1" y2="0" gradientUnits="userSpaceOnUse" gradientTransform="matrix(226.698,-226.698,226.698,226.698,169.075,682.701)"><stop offset="0" style="stop-color:rgb(49,120,198);stop-opacity:1"/><stop offset="1" style="stop-color:rgb(92,158,255);stop-opacity:1"/></linearGradient>
        <linearGradient id="_Linear16" x1="0" y1="0" x2="1" y2="0" gradientUnits="userSpaceOnUse" gradientTransform="matrix(226.698,-226.698,226.698,226.698,331.985,661.214)"><stop offset="0" style="stop-color:rgb(49,120,198);stop-opacity:1"/><stop offset="1" style="stop-color:rgb(92,158,255);stop-opacity:1"/></linearGradient>
        <linearGradient id="_Linear17" x1="0" y1="0" x2="1" y2="0" gradientUnits="userSpaceOnUse" gradientTransform="matrix(226.698,-226.698,226.698,226.698,105.284,887.915)"><stop offset="0" style="stop-color:rgb(49,120,198);stop-opacity:1"/><stop offset="1" style="stop-color:rgb(92,158,255);stop-opacity:1"/></linearGradient>
        <linearGradient id="_Linear18" x1="0" y1="0" x2="1" y2="0" gradientUnits="userSpaceOnUse" gradientTransform="matrix(229.277,-229.277,229.277,229.277,107.383,1026.36)"><stop offset="0" style="stop-color:rgb(49,120,198);stop-opacity:1"/><stop offset="1" style="stop-color:rgb(92,158,255);stop-opacity:1"/></linearGradient>
        <linearGradient id="_Linear19" x1="0" y1="0" x2="1" y2="0" gradientUnits="userSpaceOnUse" gradientTransform="matrix(226.698,-226.698,226.698,226.698,-57.2757,909.926)"><stop offset="0" style="stop-color:rgb(49,120,198);stop-opacity:1"/><stop offset="1" style="stop-color:rgb(92,158,255);stop-opacity:1"/></linearGradient>
        <linearGradient id="_Linear20" x1="0" y1="0" x2="1" y2="0" gradientUnits="userSpaceOnUse" gradientTransform="matrix(226.698,-226.698,226.698,226.698,622.473,229.303)"><stop offset="0" style="stop-color:rgb(49,120,198);stop-opacity:1"/><stop offset="1" style="stop-color:rgb(92,158,255);stop-opacity:1"/></linearGradient>
        <linearGradient id="_Linear21" x1="0" y1="0" x2="1" y2="0" gradientUnits="userSpaceOnUse" gradientTransform="matrix(226.698,-226.698,226.698,226.698,395.776,456.004)"><stop offset="0" style="stop-color:rgb(49,120,198);stop-opacity:1"/><stop offset="1" style="stop-color:rgb(92,158,255);stop-opacity:1"/></linearGradient>
        <linearGradient id="_Linear22" x1="0" y1="0" x2="1" y2="0" gradientUnits="userSpaceOnUse" gradientTransform="matrix(226.698,-226.698,226.698,226.698,558.682,434.517)"><stop offset="0" style="stop-color:rgb(49,120,198);stop-opacity:1"/><stop offset="1" style="stop-color:rgb(92,158,255);stop-opacity:1"/></linearGradient>
        <linearGradient id="_Linear23" x1="0" y1="0" x2="1" y2="0" gradientUnits="userSpaceOnUse" gradientTransform="matrix(226.698,-226.698,226.698,226.698,782.204,210.995)"><stop offset="0" style="stop-color:rgb(49,120,198);stop-opacity:1"/><stop offset="1" style="stop-color:rgb(92,158,255);stop-opacity:1"/></linearGradient>
        <linearGradient id="_Linear24" x1="0" y1="0" x2="1" y2="0" gradientUnits="userSpaceOnUse" gradientTransform="matrix(226.698,-226.698,226.698,226.698,334.315,800.043)"><stop offset="0" style="stop-color:rgb(49,120,198);stop-opacity:1"/><stop offset="1" style="stop-color:rgb(92,158,255);stop-opacity:1"/></linearGradient>
        <linearGradient id="_Linear25" x1="0" y1="0" x2="1" y2="0" gradientUnits="userSpaceOnUse" gradientTransform="matrix(226.698,-226.698,226.698,226.698,497.22,778.56)"><stop offset="0" style="stop-color:rgb(49,120,198);stop-opacity:1"/><stop offset="1" style="stop-color:rgb(92,158,255);stop-opacity:1"/></linearGradient>
        <linearGradient id="_Linear26" x1="0" y1="0" x2="1" y2="0" gradientUnits="userSpaceOnUse" gradientTransform="matrix(226.698,-226.698,226.698,226.698,270.524,1005.26)"><stop offset="0" style="stop-color:rgb(49,120,198);stop-opacity:1"/><stop offset="1" style="stop-color:rgb(92,158,255);stop-opacity:1"/></linearGradient>
        <linearGradient id="_Linear27" x1="0" y1="0" x2="1" y2="0" gradientUnits="userSpaceOnUse" gradientTransform="matrix(226.698,-226.698,226.698,226.698,787.712,346.645)"><stop offset="0" style="stop-color:rgb(49,120,198);stop-opacity:1"/><stop offset="1" style="stop-color:rgb(92,158,255);stop-opacity:1"/></linearGradient>
        <linearGradient id="_Linear28" x1="0" y1="0" x2="1" y2="0" gradientUnits="userSpaceOnUse" gradientTransform="matrix(226.698,-226.698,226.698,226.698,561.011,573.346)"><stop offset="0" style="stop-color:rgb(49,120,198);stop-opacity:1"/><stop offset="1" style="stop-color:rgb(92,158,255);stop-opacity:1"/></linearGradient>
        <linearGradient id="_Linear29" x1="0" y1="0" x2="1" y2="0" gradientUnits="userSpaceOnUse" gradientTransform="matrix(226.698,-226.698,226.698,226.698,723.921,551.859)"><stop offset="0" style="stop-color:rgb(49,120,198);stop-opacity:1"/><stop offset="1" style="stop-color:rgb(92,158,255);stop-opacity:1"/></linearGradient>
        <linearGradient id="_Linear30" x1="0" y1="0" x2="1" y2="0" gradientUnits="userSpaceOnUse" gradientTransform="matrix(226.698,-226.698,226.698,226.698,425.476,990.601)"><stop offset="0" style="stop-color:rgb(49,120,198);stop-opacity:1"/><stop offset="1" style="stop-color:rgb(92,158,255);stop-opacity:1"/></linearGradient>
        <linearGradient id="_Linear31" x1="0" y1="0" x2="1" y2="0" gradientUnits="userSpaceOnUse" gradientTransform="matrix(226.698,-226.698,226.698,226.698,588.382,969.114)"><stop offset="0" style="stop-color:rgb(49,120,198);stop-opacity:1"/><stop offset="1" style="stop-color:rgb(92,158,255);stop-opacity:1"/></linearGradient>
        <linearGradient id="_Linear32" x1="0" y1="0" x2="1" y2="0" gradientUnits="userSpaceOnUse" gradientTransform="matrix(226.698,-226.698,226.698,226.698,878.869,537.203)"><stop offset="0" style="stop-color:rgb(49,120,198);stop-opacity:1"/><stop offset="1" style="stop-color:rgb(92,158,255);stop-opacity:1"/></linearGradient>
        <linearGradient id="_Linear33" x1="0" y1="0" x2="1" y2="0" gradientUnits="userSpaceOnUse" gradientTransform="matrix(226.698,-226.698,226.698,226.698,652.173,763.904)"><stop offset="0" style="stop-color:rgb(49,120,198);stop-opacity:1"/><stop offset="1" style="stop-color:rgb(92,158,255);stop-opacity:1"/></linearGradient>
        <linearGradient id="_Linear34" x1="0" y1="0" x2="1" y2="0" gradientUnits="userSpaceOnUse" gradientTransform="matrix(226.698,-226.698,226.698,226.698,815.078,742.417)"><stop offset="0" style="stop-color:rgb(49,120,198);stop-opacity:1"/><stop offset="1" style="stop-color:rgb(92,158,255);stop-opacity:1"/></linearGradient>
        <linearGradient id="_Linear35" x1="0" y1="0" x2="1" y2="0" gradientUnits="userSpaceOnUse" gradientTransform="matrix(226.698,-226.698,226.698,226.698,425.476,990.601)"><stop offset="0" style="stop-color:rgb(49,120,198);stop-opacity:1"/><stop offset="1" style="stop-color:rgb(92,158,255);stop-opacity:1"/></linearGradient>
        <linearGradient id="_Linear36" x1="0" y1="0" x2="1" y2="0" gradientUnits="userSpaceOnUse" gradientTransform="matrix(226.698,-226.698,226.698,226.698,588.382,969.114)"><stop offset="0" style="stop-color:rgb(49,120,198);stop-opacity:1"/><stop offset="1" style="stop-color:rgb(92,158,255);stop-opacity:1"/></linearGradient>
        <linearGradient id="_Linear37" x1="0" y1="0" x2="1" y2="0" gradientUnits="userSpaceOnUse" gradientTransform="matrix(226.698,-226.698,226.698,226.698,878.869,537.203)"><stop offset="0" style="stop-color:rgb(49,120,198);stop-opacity:1"/><stop offset="1" style="stop-color:rgb(92,158,255);stop-opacity:1"/></linearGradient>
        <linearGradient id="_Linear38" x1="0" y1="0" x2="1" y2="0" gradientUnits="userSpaceOnUse" gradientTransform="matrix(226.698,-226.698,226.698,226.698,652.173,763.904)"><stop offset="0" style="stop-color:rgb(49,120,198);stop-opacity:1"/><stop offset="1" style="stop-color:rgb(92,158,255);stop-opacity:1"/></linearGradient>
        <linearGradient id="_Linear39" x1="0" y1="0" x2="1" y2="0" gradientUnits="userSpaceOnUse" gradientTransform="matrix(226.698,-226.698,226.698,226.698,815.078,742.417)"><stop offset="0" style="stop-color:rgb(49,120,198);stop-opacity:1"/><stop offset="1" style="stop-color:rgb(92,158,255);stop-opacity:1"/></linearGradient>
        <linearGradient id="_Linear40" x1="0" y1="0" x2="1" y2="0" gradientUnits="userSpaceOnUse" gradientTransform="matrix(226.698,-226.698,226.698,226.698,597.897,1100.76)"><stop offset="0" style="stop-color:rgb(49,120,198);stop-opacity:1"/><stop offset="1" style="stop-color:rgb(92,158,255);stop-opacity:1"/></linearGradient>
        <linearGradient id="_Linear41" x1="0" y1="0" x2="1" y2="0" gradientUnits="userSpaceOnUse" gradientTransform="matrix(226.698,-226.698,226.698,226.698,824.593,874.061)"><stop offset="0" style="stop-color:rgb(49,120,198);stop-opacity:1"/><stop offset="1" style="stop-color:rgb(92,158,255);stop-opacity:1"/></linearGradient>
        <linearGradient id="_Linear42" x1="0" y1="0" x2="1" y2="0" gradientUnits="userSpaceOnUse" gradientTransform="matrix(302.853,-308.497,308.497,302.853,723.921,551.859)"><stop offset="0" style="stop-color:rgb(49,120,198);stop-opacity:1"/><stop offset="1" style="stop-color:rgb(92,158,255);stop-opacity:1"/></linearGradient>
        <linearGradient id="_Linear43" x1="0" y1="0" x2="1" y2="0" gradientUnits="userSpaceOnUse" gradientTransform="matrix(229.66,339.499,-339.499,229.66,34.2571,503.049)"><stop offset="0" style="stop-color:rgb(125,70,216);stop-opacity:1"/><stop offset="1" style="stop-color:rgb(249,224,110);stop-opacity:1"/></linearGradient>
    </defs>
</svg>
