<?xml version="1.0" encoding="UTF-8" standalone="no"?>
<!DOCTYPE svg PUBLIC "-//W3C//DTD SVG 1.1//EN" "http://www.w3.org/Graphics/SVG/1.1/DTD/svg11.dtd">
<svg width="100%" height="100%" viewBox="0 0 1024 576" version="1.1" xmlns="http://www.w3.org/2000/svg" xmlns:xlink="http://www.w3.org/1999/xlink" xml:space="preserve" xmlns:serif="http://www.serif.com/" style="fill-rule:evenodd;clip-rule:evenodd;stroke-linejoin:round;stroke-miterlimit:2;">
    <g>
        <rect id="Fill" x="0" y="0" width="1024" height="576" style="fill:rgb(4,18,43);"/>
        <g opacity="0.2">
            <path d="M942.22,271.633C962.537,243.742 1001.68,237.593 1029.57,257.91C1057.46,278.227 1063.61,317.366 1043.29,345.257L829.887,638.209L728.818,564.585L942.22,271.633Z" style="fill:url(#_Linear1);"/>
            <path d="M786.145,390.477C806.462,362.586 845.601,356.437 873.492,376.755C901.383,397.072 907.531,436.21 887.214,464.101L673.813,757.054L572.743,683.43L786.145,390.477Z" style="fill:url(#_Linear2);"/>
            <path d="M509.808,428.783C530.125,400.892 569.264,394.743 597.155,415.06C625.046,435.378 631.195,474.516 610.878,502.407L397.476,795.36L296.406,721.735L509.808,428.783Z" style="fill:url(#_Linear3);"/>
            <path d="M700.85,336.007C710.991,322.087 730.525,319.018 744.445,329.158C758.366,339.298 761.435,358.833 751.294,372.753L644.785,518.967L594.341,482.22L700.85,336.007Z" style="fill:url(#_Linear4);"/>
            <path d="M688.16,127.761C714.602,91.462 765.54,83.46 801.839,109.902C838.138,136.344 846.14,187.282 819.698,223.581L541.963,604.848L410.425,509.029L688.16,127.761Z" style="fill:url(#_Linear5);"/>
            <path d="M970.458,-76.126C990.775,-104.017 1029.91,-110.166 1057.81,-89.849C1085.7,-69.532 1091.85,-30.393 1071.53,-2.502L858.126,290.45L757.056,216.826L970.458,-76.126Z" style="fill:url(#_Linear6);"/>
            <path d="M986.778,83.198C995.797,70.817 1013.17,68.087 1025.55,77.106C1037.93,86.126 1040.66,103.5 1031.64,115.882L936.91,245.931L892.043,213.247L986.778,83.198Z" style="fill:url(#_Linear7);"/>
            <path d="M561.393,221.285C578.498,197.804 611.449,192.627 634.93,209.732C658.411,226.837 663.588,259.787 646.483,283.269L466.821,529.904L381.731,467.92L561.393,221.285Z" style="fill:url(#_Linear8);"/>
            <path d="M942.22,271.633C962.537,243.742 1001.68,237.593 1029.57,257.91C1057.46,278.227 1063.61,317.366 1043.29,345.257L829.887,638.209L728.818,564.585L942.22,271.633Z" style="fill:url(#_Linear9);"/>
            <path d="M786.145,390.477C806.462,362.586 845.601,356.437 873.492,376.755C901.383,397.072 907.531,436.21 887.214,464.101L673.813,757.054L572.743,683.43L786.145,390.477Z" style="fill:url(#_Linear10);"/>
            <path d="M509.808,428.783C530.125,400.892 569.264,394.743 597.155,415.06C625.046,435.378 631.195,474.516 610.878,502.407L397.476,795.36L296.406,721.735L509.808,428.783Z" style="fill:url(#_Linear11);"/>
            <path d="M44.663,90.806C64.98,62.915 104.119,56.766 132.01,77.083C159.901,97.4 166.05,136.539 145.733,164.43L-67.669,457.382L-168.739,383.758L44.663,90.806Z" style="fill:url(#_Linear12);"/>
            <path d="M222.672,-57.962C238.139,-79.195 267.935,-83.876 289.167,-68.409C310.4,-52.942 315.081,-23.146 299.614,-1.913L137.156,221.105L60.214,165.056L222.672,-57.962Z" style="fill:url(#_Linear13);"/>
            <path d="M989.546,470.21C999.686,456.29 1019.22,453.221 1033.14,463.361C1047.06,473.502 1050.13,493.036 1039.99,506.956L933.481,653.17L883.037,616.424L989.546,470.21Z" style="fill:url(#_Linear14);"/>
            <path d="M688.16,127.761C714.602,91.462 765.54,83.46 801.839,109.902C838.138,136.344 846.14,187.282 819.698,223.581L541.963,604.848L410.425,509.029L688.16,127.761Z" style="fill:url(#_Linear15);"/>
            <path d="M970.458,-76.126C990.775,-104.017 1029.91,-110.166 1057.81,-89.849C1085.7,-69.532 1091.85,-30.393 1071.53,-2.502L858.126,290.45L757.056,216.826L970.458,-76.126Z" style="fill:url(#_Linear16);"/>
            <path d="M986.778,83.198C995.797,70.817 1013.17,68.087 1025.55,77.106C1037.93,86.126 1040.66,103.5 1031.64,115.882L936.91,245.931L892.043,213.247L986.778,83.198Z" style="fill:url(#_Linear17);"/>
            <path d="M561.393,221.285C578.498,197.804 611.449,192.627 634.93,209.732C658.411,226.837 663.588,259.787 646.483,283.269L466.821,529.904L381.731,467.92L561.393,221.285Z" style="fill:url(#_Linear18);"/>
        </g>
        <g>
            <path d="M253.521,223.32L320,180L253.427,180L133.427,273.608L133.427,301.579L253.521,223.32" style="fill:url(#_Linear19);"/>
            <path d="M355.339,248.908L253.427,180L321.075,180L373.427,219.997L373.427,261.138L355.339,248.908" style="fill:url(#_Linear20);"/>
            <g>
                <g>
                    <clipPath id="_clip21">
                        <rect x="169.052" y="215.625" width="168.75" height="168.75"/>
                    </clipPath>
                    <g clip-path="url(#_clip21)">
                        <path d="M136.439,258.782L189.572,205.65L206.145,222.223L153.012,275.355L136.439,258.782Z" style="fill:url(#_Linear22);"/>
                        <path d="M204.523,157.553L257.655,104.421L274.228,120.994L221.096,174.126L204.523,157.553Z" style="fill:url(#_Linear23);"/>
                        <path d="M151.39,210.686L204.523,157.553L221.096,174.126L167.963,227.259L151.39,210.686Z" style="fill:url(#_Linear24);"/>
                        <path d="M189.572,205.65L242.704,152.517L259.277,169.09L206.145,222.223L189.572,205.65Z" style="fill:url(#_Linear25);"/>
                        <path d="M136.439,258.782L189.572,205.65L206.145,222.223L153.012,275.355L136.439,258.782Z" style="fill:url(#_Linear26);"/>
                        <path d="M151.39,210.686L204.523,157.553L221.096,174.126L167.963,227.259L151.39,210.686Z" style="fill:url(#_Linear27);"/>
                        <path d="M189.572,205.65L242.704,152.517L259.277,169.09L206.145,222.223L189.572,205.65Z" style="fill:url(#_Linear28);"/>
                        <path d="M138.669,289.636L191.801,236.504L208.374,253.077L155.242,306.209L138.669,289.636Z" style="fill:url(#_Linear29);"/>
                        <path d="M176.85,284.601L229.983,231.468L246.556,248.041L193.423,301.173L176.85,284.601Z" style="fill:url(#_Linear30);"/>
                        <path d="M123.718,337.733L176.85,284.601L193.423,301.173L140.291,354.306L123.718,337.733Z" style="fill:url(#_Linear31);"/>
                        <path d="M191.801,236.504L244.934,183.372L261.507,199.945L208.374,253.077L191.801,236.504Z" style="fill:url(#_Linear32);"/>
                        <path d="M229.983,231.468L283.115,178.336L299.688,194.909L246.556,248.041L229.983,231.468Z" style="fill:url(#_Linear33);"/>
                        <path d="M164.768,329.767L217.9,276.635L234.473,293.207L181.341,346.34L164.768,329.767Z" style="fill:url(#_Linear34);"/>
                        <path d="M202.949,324.731L256.082,271.599L272.654,288.171L219.522,341.304L202.949,324.731Z" style="fill:url(#_Linear35);"/>
                        <path d="M149.817,377.863L202.949,324.731L219.522,341.304L166.39,394.436L149.817,377.863Z" style="fill:url(#_Linear36);"/>
                        <path d="M150.214,410.218L203.951,356.481L220.712,373.243L166.975,426.979L150.214,410.218Z" style="fill:url(#_Linear37);"/>
                        <path d="M111.717,383.023L164.849,329.89L181.422,346.463L128.29,399.596L111.717,383.023Z" style="fill:url(#_Linear38);"/>
                        <path d="M271.033,223.502L324.165,170.37L340.738,186.943L287.606,240.075L271.033,223.502Z" style="fill:url(#_Linear39);"/>
                        <path d="M217.9,276.634L271.033,223.502L287.605,240.075L234.473,293.207L217.9,276.634Z" style="fill:url(#_Linear40);"/>
                        <path d="M256.082,271.599L309.214,218.466L325.787,235.039L272.654,288.171L256.082,271.599Z" style="fill:url(#_Linear41);"/>
                        <path d="M308.469,219.211L361.602,166.079L378.174,182.652L325.042,235.784L308.469,219.211Z" style="fill:url(#_Linear42);"/>
                        <path d="M203.495,357.269L256.628,304.136L273.201,320.709L220.068,373.842L203.495,357.269Z" style="fill:url(#_Linear43);"/>
                        <path d="M241.677,352.233L294.809,299.101L311.382,315.674L258.25,368.806L241.677,352.233Z" style="fill:url(#_Linear44);"/>
                        <path d="M188.544,405.366L241.677,352.233L258.249,368.806L205.117,421.938L188.544,405.366Z" style="fill:url(#_Linear45);"/>
                        <path d="M309.76,251.004L362.893,197.872L379.465,214.444L326.333,267.577L309.76,251.004Z" style="fill:url(#_Linear46);"/>
                        <path d="M256.628,304.136L309.76,251.004L326.333,267.577L273.201,320.709L256.628,304.136Z" style="fill:url(#_Linear47);"/>
                        <path d="M294.809,299.1L347.941,245.968L364.514,262.541L311.382,315.673L294.809,299.1Z" style="fill:url(#_Linear48);"/>
                        <path d="M224.861,401.931L277.993,348.798L294.566,365.371L241.434,418.503L224.861,401.931Z" style="fill:url(#_Linear49);"/>
                        <path d="M263.042,396.895L316.175,343.762L332.748,360.335L279.615,413.468L263.042,396.895Z" style="fill:url(#_Linear50);"/>
                        <path d="M331.126,295.666L384.258,242.533L400.831,259.106L347.699,312.239L331.126,295.666Z" style="fill:url(#_Linear51);"/>
                        <path d="M277.994,348.798L331.126,295.666L347.699,312.239L294.566,365.371L277.994,348.798Z" style="fill:url(#_Linear52);"/>
                        <path d="M316.175,343.762L369.307,290.63L385.88,307.203L332.748,360.335L316.175,343.762Z" style="fill:url(#_Linear53);"/>
                        <path d="M224.861,401.931L277.993,348.798L294.566,365.371L241.434,418.503L224.861,401.931Z" style="fill:url(#_Linear54);"/>
                        <path d="M263.042,396.895L316.175,343.762L332.748,360.335L279.615,413.468L263.042,396.895Z" style="fill:url(#_Linear55);"/>
                        <path d="M331.126,295.666L384.258,242.533L400.831,259.106L347.699,312.239L331.126,295.666Z" style="fill:url(#_Linear56);"/>
                        <path d="M277.994,348.798L331.126,295.666L347.699,312.239L294.566,365.371L277.994,348.798Z" style="fill:url(#_Linear57);"/>
                        <path d="M316.175,343.762L369.307,290.63L385.88,307.203L332.748,360.335L316.175,343.762Z" style="fill:url(#_Linear58);"/>
                        <path d="M265.272,427.749L318.404,374.617L334.977,391.189L281.845,444.322L265.272,427.749Z" style="fill:url(#_Linear59);"/>
                        <path d="M318.405,374.617L371.537,321.484L388.11,338.057L334.977,391.189L318.405,374.617Z" style="fill:url(#_Linear60);"/>
                    </g>
                </g>
            </g>
            <path d="M294.809,299.1L373.427,219.997L373.427,261.083L311.382,315.673L294.809,299.1Z" style="fill:url(#_Linear61);"/>
            <g>
                <path d="M239.573,301.579C248.372,301.579 254.875,303.537 259.081,307.413C263.287,311.29 265.39,316.694 265.39,323.606C265.39,327.718 264.556,331.594 262.886,335.217C261.215,338.839 258.455,341.776 254.601,344.028C250.748,346.279 245.513,347.395 238.899,347.395L233.119,347.395L233.119,371.479L216.743,371.479L216.743,301.579L239.573,301.579ZM238.996,315.187L233.119,315.187L233.119,333.787L237.454,333.787C240.729,333.787 243.442,333.043 245.594,331.536C247.746,330.048 248.821,327.561 248.821,324.095C248.821,321.237 248.018,319.024 246.413,317.497C244.808,315.95 242.334,315.187 238.996,315.187Z" style="fill:white;fill-rule:nonzero;"/>
                <path d="M300.263,301.579C309.062,301.579 315.564,303.537 319.77,307.413C323.976,311.29 326.079,316.694 326.079,323.606C326.079,327.718 325.245,331.594 323.575,335.217C321.904,338.839 319.144,341.776 315.29,344.028C311.437,346.279 306.202,347.395 299.588,347.395L293.808,347.395L293.808,371.479L277.432,371.479L277.432,301.579L300.263,301.579ZM299.685,315.187L293.808,315.187L293.808,333.787L298.143,333.787C301.419,333.787 304.131,333.043 306.283,331.536C308.435,330.048 309.51,327.561 309.51,324.095C309.51,321.237 308.707,319.024 307.102,317.497C305.497,315.95 303.023,315.187 299.685,315.187Z" style="fill:white;fill-rule:nonzero;"/>
            </g>
            <path d="M242.427,384.375L238.25,416.09L204.613,410.672L133.427,301.579L133.427,273.686L242.427,384.375Z" style="fill:url(#_Linear62);"/>
        </g>
        <g>
            <g transform="matrix(0.823271,0,0,0.823271,-21.0154,54.3285)">
                <g transform="matrix(85.3333,0,0,85.3333,542,245)">
                    <path d="M0.086,-0L0.265,-0L0.265,-0.247L0.352,-0.247C0.51,-0.247 0.646,-0.325 0.646,-0.502C0.646,-0.686 0.511,-0.745 0.348,-0.745L0.086,-0.745L0.086,-0ZM0.265,-0.388L0.265,-0.603L0.338,-0.603C0.424,-0.603 0.472,-0.577 0.472,-0.502C0.472,-0.429 0.43,-0.388 0.343,-0.388L0.265,-0.388Z" style="fill:rgb(234,235,238);fill-rule:nonzero;"/>
                </g>
                <g transform="matrix(85.3333,0,0,85.3333,600.624,245)">
                    <path d="M0.393,0.014C0.596,0.014 0.734,-0.132 0.734,-0.376C0.734,-0.619 0.596,-0.758 0.393,-0.758C0.19,-0.758 0.052,-0.62 0.052,-0.376C0.052,-0.132 0.19,0.014 0.393,0.014ZM0.393,-0.14C0.295,-0.14 0.235,-0.232 0.235,-0.376C0.235,-0.52 0.295,-0.605 0.393,-0.605C0.491,-0.605 0.552,-0.52 0.552,-0.376C0.552,-0.232 0.491,-0.14 0.393,-0.14Z" style="fill:rgb(234,235,238);fill-rule:nonzero;"/>
                </g>
                <g transform="matrix(85.3333,0,0,85.3333,667.696,245)">
                    <path d="M0.15,-0L0.371,-0L0.436,-0.324C0.447,-0.381 0.456,-0.441 0.466,-0.497L0.47,-0.497C0.477,-0.441 0.487,-0.381 0.499,-0.324L0.566,-0L0.791,-0L0.92,-0.745L0.751,-0.745L0.702,-0.405C0.693,-0.328 0.683,-0.249 0.674,-0.169L0.669,-0.169C0.654,-0.249 0.641,-0.329 0.626,-0.405L0.549,-0.745L0.398,-0.745L0.322,-0.405C0.307,-0.328 0.292,-0.249 0.278,-0.169L0.274,-0.169C0.264,-0.249 0.254,-0.327 0.244,-0.405L0.197,-0.745L0.015,-0.745L0.15,-0Z" style="fill:rgb(234,235,238);fill-rule:nonzero;"/>
                </g>
                <g transform="matrix(85.3333,0,0,85.3333,747.483,245)">
                    <path d="M0.086,-0L0.569,-0L0.569,-0.15L0.265,-0.15L0.265,-0.308L0.514,-0.308L0.514,-0.458L0.265,-0.458L0.265,-0.596L0.558,-0.596L0.558,-0.745L0.086,-0.745L0.086,-0Z" style="fill:rgb(234,235,238);fill-rule:nonzero;"/>
                </g>
                <g transform="matrix(85.3333,0,0,85.3333,801.243,245)">
                    <path d="M0.086,-0L0.265,-0L0.265,-0.262L0.351,-0.262L0.488,-0L0.688,-0L0.522,-0.295C0.599,-0.331 0.65,-0.401 0.65,-0.51C0.65,-0.69 0.518,-0.745 0.359,-0.745L0.086,-0.745L0.086,-0ZM0.265,-0.403L0.265,-0.603L0.345,-0.603C0.43,-0.603 0.476,-0.58 0.476,-0.51C0.476,-0.44 0.43,-0.403 0.345,-0.403L0.265,-0.403Z" style="fill:rgb(234,235,238);fill-rule:nonzero;"/>
                </g>
                <g transform="matrix(85.3333,0,0,85.3333,542,347.4)">
                    <path d="M0.086,-0L0.265,-0L0.265,-0.247L0.352,-0.247C0.51,-0.247 0.646,-0.325 0.646,-0.502C0.646,-0.686 0.511,-0.745 0.348,-0.745L0.086,-0.745L0.086,-0ZM0.265,-0.388L0.265,-0.603L0.338,-0.603C0.424,-0.603 0.472,-0.577 0.472,-0.502C0.472,-0.429 0.43,-0.388 0.343,-0.388L0.265,-0.388Z" style="fill:rgb(234,235,238);fill-rule:nonzero;"/>
                </g>
                <g transform="matrix(85.3333,0,0,85.3333,600.624,347.4)">
                    <path d="M0.086,-0L0.555,-0L0.555,-0.15L0.265,-0.15L0.265,-0.745L0.086,-0.745L0.086,-0Z" style="fill:rgb(234,235,238);fill-rule:nonzero;"/>
                </g>
                <g transform="matrix(85.3333,0,0,85.3333,650.885,347.4)">
                    <path d="M0.267,-0.372C0.286,-0.446 0.306,-0.533 0.324,-0.611L0.328,-0.611C0.348,-0.535 0.367,-0.446 0.387,-0.372L0.403,-0.309L0.251,-0.309L0.267,-0.372ZM-0.008,-0L0.174,-0L0.217,-0.171L0.437,-0.171L0.48,-0L0.668,-0L0.437,-0.745L0.223,-0.745L-0.008,-0Z" style="fill:rgb(234,235,238);fill-rule:nonzero;"/>
                </g>
                <g transform="matrix(85.3333,0,0,85.3333,705.328,347.4)">
                    <path d="M0.215,-0L0.393,-0L0.393,-0.263L0.618,-0.745L0.431,-0.745L0.369,-0.579C0.348,-0.523 0.328,-0.471 0.307,-0.413L0.303,-0.413C0.282,-0.471 0.263,-0.523 0.243,-0.579L0.181,-0.745L-0.009,-0.745L0.215,-0.263L0.215,-0Z" style="fill:rgb(234,235,238);fill-rule:nonzero;"/>
                </g>
                <g transform="matrix(85.3333,0,0,85.3333,755.333,347.4)">
                    <path d="M0.421,0.014C0.525,0.014 0.617,-0.027 0.669,-0.077L0.669,-0.425L0.392,-0.425L0.392,-0.279L0.51,-0.279L0.51,-0.159C0.494,-0.147 0.466,-0.14 0.44,-0.14C0.301,-0.14 0.235,-0.226 0.235,-0.374C0.235,-0.519 0.314,-0.605 0.424,-0.605C0.486,-0.605 0.525,-0.58 0.562,-0.547L0.656,-0.661C0.605,-0.712 0.527,-0.758 0.418,-0.758C0.219,-0.758 0.052,-0.616 0.052,-0.368C0.052,-0.116 0.215,0.014 0.421,0.014Z" style="fill:rgb(234,235,238);fill-rule:nonzero;"/>
                </g>
                <g transform="matrix(85.3333,0,0,85.3333,817.883,347.4)">
                    <path d="M0.086,-0L0.265,-0L0.265,-0.262L0.351,-0.262L0.488,-0L0.688,-0L0.522,-0.295C0.599,-0.331 0.65,-0.401 0.65,-0.51C0.65,-0.69 0.518,-0.745 0.359,-0.745L0.086,-0.745L0.086,-0ZM0.265,-0.403L0.265,-0.603L0.345,-0.603C0.43,-0.603 0.476,-0.58 0.476,-0.51C0.476,-0.44 0.43,-0.403 0.345,-0.403L0.265,-0.403Z" style="fill:rgb(234,235,238);fill-rule:nonzero;"/>
                </g>
                <g transform="matrix(85.3333,0,0,85.3333,878.299,347.4)">
                    <path d="M0.393,0.014C0.596,0.014 0.734,-0.132 0.734,-0.376C0.734,-0.619 0.596,-0.758 0.393,-0.758C0.19,-0.758 0.052,-0.62 0.052,-0.376C0.052,-0.132 0.19,0.014 0.393,0.014ZM0.393,-0.14C0.295,-0.14 0.235,-0.232 0.235,-0.376C0.235,-0.52 0.295,-0.605 0.393,-0.605C0.491,-0.605 0.552,-0.52 0.552,-0.376C0.552,-0.232 0.491,-0.14 0.393,-0.14Z" style="fill:rgb(234,235,238);fill-rule:nonzero;"/>
                </g>
                <g transform="matrix(85.3333,0,0,85.3333,945.371,347.4)">
                    <path d="M0.384,0.014C0.582,0.014 0.682,-0.099 0.682,-0.35L0.682,-0.745L0.51,-0.745L0.51,-0.331C0.51,-0.19 0.465,-0.14 0.384,-0.14C0.302,-0.14 0.26,-0.19 0.26,-0.331L0.26,-0.745L0.082,-0.745L0.082,-0.35C0.082,-0.099 0.185,0.014 0.384,0.014Z" style="fill:rgb(234,235,238);fill-rule:nonzero;"/>
                </g>
                <g transform="matrix(85.3333,0,0,85.3333,1010.48,347.4)">
                    <path d="M0.086,-0L0.256,-0L0.256,-0.247C0.256,-0.337 0.241,-0.439 0.233,-0.522L0.238,-0.522L0.311,-0.359L0.495,-0L0.677,-0L0.677,-0.745L0.507,-0.745L0.507,-0.498C0.507,-0.409 0.522,-0.302 0.531,-0.223L0.526,-0.223L0.453,-0.388L0.268,-0.745L0.086,-0.745L0.086,-0Z" style="fill:rgb(234,235,238);fill-rule:nonzero;"/>
                </g>
                <g transform="matrix(85.3333,0,0,85.3333,1075.67,347.4)">
                    <path d="M0.086,-0L0.31,-0C0.527,-0 0.677,-0.117 0.677,-0.376C0.677,-0.635 0.527,-0.745 0.3,-0.745L0.086,-0.745L0.086,-0ZM0.265,-0.144L0.265,-0.602L0.289,-0.602C0.409,-0.602 0.494,-0.553 0.494,-0.376C0.494,-0.199 0.409,-0.144 0.289,-0.144L0.265,-0.144Z" style="fill:rgb(234,235,238);fill-rule:nonzero;"/>
                </g>
            </g>
            <path d="M439.671,392.607C441.757,392.607 443.403,391.774 444.698,390.282L443.337,388.679C442.371,389.733 441.252,390.392 439.759,390.392C436.905,390.392 435.105,388.043 435.105,384.2C435.105,380.401 437.037,378.073 439.825,378.073C441.142,378.073 442.152,378.666 442.986,379.523L444.369,377.898C443.381,376.823 441.801,375.859 439.781,375.859C435.697,375.859 432.495,379.017 432.495,384.288C432.495,389.58 435.61,392.607 439.671,392.607Z" style="fill:rgb(194,205,220);fill-rule:nonzero;"/>
            <path d="M452.164,392.607C455.151,392.607 457.849,390.304 457.849,386.285C457.849,382.267 455.151,379.942 452.164,379.942C449.177,379.942 446.479,382.267 446.479,386.285C446.479,390.304 449.177,392.607 452.164,392.607ZM452.164,390.546C450.275,390.546 449.089,388.855 449.089,386.285C449.089,383.738 450.275,382.025 452.164,382.025C454.075,382.025 455.261,383.738 455.261,386.285C455.261,388.855 454.075,390.546 452.164,390.546Z" style="fill:rgb(194,205,220);fill-rule:nonzero;"/>
            <path d="M464.985,392.607C466.341,392.607 467.591,391.883 468.49,390.962L468.578,390.962L468.776,392.321L470.846,392.321L470.846,374.827L468.324,374.827L468.324,379.305L468.433,381.301C467.445,380.468 466.566,379.942 465.183,379.942C462.481,379.942 460.003,382.376 460.003,386.284C460.003,390.304 461.955,392.607 464.985,392.607ZM465.578,390.524C463.689,390.524 462.613,389.009 462.613,386.263C462.613,383.65 463.975,382.047 465.666,382.047C466.566,382.047 467.423,382.332 468.324,383.145L468.324,389.053C467.445,390.063 466.588,390.524 465.578,390.524Z" style="fill:rgb(194,205,220);fill-rule:nonzero;"/>
            <path d="M479.673,392.607C481.254,392.607 482.637,392.081 483.755,391.335L482.878,389.733C482.001,390.304 481.078,390.634 480.002,390.634C477.915,390.634 476.466,389.25 476.268,386.943L484.106,386.943C484.172,386.636 484.237,386.154 484.237,385.649C484.237,382.245 482.505,379.942 479.299,379.942C476.488,379.942 473.79,382.377 473.79,386.285C473.79,390.282 476.4,392.607 479.673,392.607ZM476.246,385.189C476.488,383.08 477.828,381.915 479.343,381.915C481.1,381.915 482.045,383.124 482.045,385.189L476.246,385.189Z" style="fill:rgb(194,205,220);fill-rule:nonzero;"/>
            <path d="M488.41,392.607C489.353,392.607 490.099,391.883 490.099,390.852C490.099,389.799 489.353,389.053 488.41,389.053C487.467,389.053 486.721,389.799 486.721,390.852C486.721,391.883 487.467,392.607 488.41,392.607Z" style="fill:rgb(194,205,220);fill-rule:nonzero;"/>
            <path d="M503.36,392.607C506.896,392.607 509.045,390.502 509.045,387.911C509.045,385.539 507.664,384.353 505.755,383.541L503.536,382.597C502.218,382.07 500.922,381.543 500.922,380.137C500.922,378.864 501.999,378.073 503.646,378.073C505.074,378.073 506.194,378.622 507.203,379.523L508.541,377.898C507.313,376.648 505.535,375.859 503.646,375.859C500.571,375.859 498.335,377.766 498.335,380.313C498.335,382.663 500.067,383.892 501.625,384.551L503.866,385.517C505.359,386.176 506.457,386.637 506.457,388.108C506.457,389.47 505.359,390.392 503.404,390.392C501.845,390.392 500.264,389.646 499.102,388.482L497.61,390.238C499.08,391.73 501.142,392.607 503.36,392.607Z" style="fill:rgb(194,205,220);fill-rule:nonzero;"/>
            <path d="M511.88,392.321L514.402,392.321L514.402,383.759C515.456,382.684 516.225,382.113 517.345,382.113C518.773,382.113 519.388,382.947 519.388,385.033L519.388,392.321L521.91,392.321L521.91,384.725C521.91,381.652 520.77,379.942 518.202,379.942C516.555,379.942 515.347,380.841 514.292,381.85L514.402,379.459L514.402,374.827L511.88,374.827L511.88,392.321Z" style="fill:rgb(194,205,220);fill-rule:nonzero;"/>
            <path d="M528.365,392.607C529.811,392.607 531.104,391.883 532.201,390.941L532.288,390.941L532.486,392.321L534.556,392.321L534.556,385.055C534.556,381.85 533.174,379.942 530.167,379.942C528.234,379.942 526.543,380.731 525.293,381.521L526.236,383.232C527.267,382.574 528.453,382.003 529.727,382.003C531.507,382.003 532.012,383.232 532.034,384.638C527.004,385.186 524.811,386.526 524.811,389.116C524.811,391.248 526.28,392.607 528.365,392.607ZM529.134,390.612C528.058,390.612 527.245,390.129 527.245,388.943C527.245,387.581 528.453,386.659 532.034,386.241L532.034,389.206C531.045,390.107 530.189,390.612 529.134,390.612Z" style="fill:rgb(194,205,220);fill-rule:nonzero;"/>
            <path d="M538.137,392.321L540.659,392.321L540.659,384.793C541.405,382.881 542.591,382.201 543.579,382.201C544.062,382.201 544.369,382.266 544.786,382.398L545.247,380.206C544.883,380.03 544.488,379.942 543.895,379.942C542.6,379.942 541.326,380.863 540.47,382.42L540.404,382.42L540.207,380.249L538.137,380.249L538.137,392.321Z" style="fill:rgb(194,205,220);fill-rule:nonzero;"/>
            <path d="M551.901,392.607C553.482,392.607 554.865,392.081 555.983,391.335L555.106,389.733C554.229,390.304 553.307,390.634 552.23,390.634C550.144,390.634 548.694,389.25 548.496,386.943L556.334,386.943C556.4,386.636 556.466,386.154 556.466,385.649C556.466,382.245 554.733,379.942 551.527,379.942C548.716,379.942 546.018,382.377 546.018,386.285C546.018,390.282 548.628,392.607 551.901,392.607ZM548.474,385.189C548.716,383.08 550.056,381.915 551.571,381.915C553.329,381.915 554.273,383.124 554.273,385.189L548.474,385.189Z" style="fill:rgb(194,205,220);fill-rule:nonzero;"/>
            <path d="M560.638,392.607C561.582,392.607 562.327,391.883 562.327,390.852C562.327,389.799 561.582,389.053 560.638,389.053C559.695,389.053 558.949,389.799 558.949,390.852C558.949,391.883 559.695,392.607 560.638,392.607Z" style="fill:rgb(194,205,220);fill-rule:nonzero;"/>
            <path d="M570.98,392.321L580.769,392.321L580.769,390.173L573.524,390.173L573.524,384.945L579.451,384.945L579.451,382.796L573.524,382.796L573.524,378.315L580.527,378.315L580.527,376.166L570.98,376.166L570.98,392.321Z" style="fill:rgb(194,205,220);fill-rule:nonzero;"/>
            <path d="M583.933,392.321L586.455,392.321L586.455,383.759C587.443,382.662 588.344,382.113 589.157,382.113C590.54,382.113 591.178,382.947 591.178,385.033L591.178,392.321L593.699,392.321L593.699,383.759C594.71,382.662 595.589,382.113 596.423,382.113C597.785,382.113 598.444,382.947 598.444,385.033L598.444,392.321L600.966,392.321L600.966,384.725C600.966,381.652 599.782,379.942 597.258,379.942C595.742,379.942 594.512,380.885 593.327,382.157C592.8,380.775 591.792,379.942 589.991,379.942C588.502,379.942 587.296,380.841 586.266,381.937L586.2,381.937L586.002,380.249L583.933,380.249L583.933,392.321Z" style="fill:rgb(194,205,220);fill-rule:nonzero;"/>
            <path d="M604.613,397.217L607.135,397.217L607.135,393.309L607.048,391.247C608.08,392.124 609.156,392.607 610.232,392.607C612.956,392.607 615.434,390.238 615.434,386.088C615.434,382.376 613.723,379.942 610.672,379.942C609.315,379.942 607.999,380.688 606.946,381.565L606.881,381.565L606.683,380.249L604.613,380.249L604.613,397.217ZM609.749,390.524C609.002,390.524 608.08,390.238 607.135,389.426L607.135,383.518C608.146,382.53 609.046,382.047 609.991,382.047C612.011,382.047 612.824,383.606 612.824,386.132C612.824,388.965 611.506,390.524 609.749,390.524Z" style="fill:rgb(194,205,220);fill-rule:nonzero;"/>
            <path d="M623.273,392.607C626.26,392.607 628.957,390.304 628.957,386.285C628.957,382.267 626.26,379.942 623.273,379.942C620.286,379.942 617.588,382.267 617.588,386.285C617.588,390.304 620.286,392.607 623.273,392.607ZM623.273,390.546C621.384,390.546 620.198,388.855 620.198,386.285C620.198,383.738 621.384,382.025 623.273,382.025C625.184,382.025 626.37,383.738 626.37,386.285C626.37,388.855 625.184,390.546 623.273,390.546Z" style="fill:rgb(194,205,220);fill-rule:nonzero;"/>
            <path d="M633.746,392.321L636.665,392.321L638.136,386.375C638.443,385.231 638.662,384.111 638.904,382.859L639.014,382.859C639.277,384.111 639.497,385.209 639.782,386.351L641.318,392.321L644.347,392.321L647.465,380.249L645.094,380.249L643.535,386.769C643.272,387.954 643.074,389.053 642.833,390.217L642.745,390.217C642.46,389.053 642.218,387.954 641.933,386.769L640.199,380.249L637.872,380.249L636.16,386.769C635.875,387.933 635.633,389.053 635.37,390.217L635.282,390.217C635.063,389.053 634.865,387.954 634.624,386.769L633.021,380.249L630.475,380.249L633.746,392.321Z" style="fill:rgb(194,205,220);fill-rule:nonzero;"/>
            <path d="M654.865,392.607C656.446,392.607 657.829,392.081 658.947,391.335L658.07,389.733C657.193,390.304 656.27,390.634 655.194,390.634C653.107,390.634 651.658,389.25 651.46,386.943L659.298,386.943C659.364,386.636 659.429,386.154 659.429,385.649C659.429,382.245 657.697,379.942 654.491,379.942C651.68,379.942 648.982,382.377 648.982,386.285C648.982,390.282 651.592,392.607 654.865,392.607ZM651.438,385.189C651.68,383.08 653.02,381.915 654.535,381.915C656.292,381.915 657.237,383.124 657.237,385.189L651.438,385.189Z" style="fill:rgb(194,205,220);fill-rule:nonzero;"/>
            <path d="M662.242,392.321L664.764,392.321L664.764,384.793C665.511,382.881 666.696,382.201 667.684,382.201C668.167,382.201 668.474,382.266 668.892,382.398L669.353,380.206C668.988,380.03 668.593,379.942 668,379.942C666.705,379.942 665.432,380.863 664.576,382.42L664.51,382.42L664.312,380.249L662.242,380.249L662.242,392.321Z" style="fill:rgb(194,205,220);fill-rule:nonzero;"/>
            <path d="M670.935,392.607C671.878,392.607 672.624,391.883 672.624,390.852C672.624,389.799 671.878,389.053 670.935,389.053C669.991,389.053 669.246,389.799 669.246,390.852C669.246,391.883 669.991,392.607 670.935,392.607Z" style="fill:rgb(194,205,220);fill-rule:nonzero;"/>
        </g>
        <g>
            <g transform="matrix(0.823271,0,0,0.823271,-21.0154,54.3285)">
                <g transform="matrix(85.3333,0,0,85.3333,542,245)">
                    <path d="M0.086,-0L0.265,-0L0.265,-0.247L0.352,-0.247C0.51,-0.247 0.646,-0.325 0.646,-0.502C0.646,-0.686 0.511,-0.745 0.348,-0.745L0.086,-0.745L0.086,-0ZM0.265,-0.388L0.265,-0.603L0.338,-0.603C0.424,-0.603 0.472,-0.577 0.472,-0.502C0.472,-0.429 0.43,-0.388 0.343,-0.388L0.265,-0.388Z" style="fill:rgb(234,235,238);fill-rule:nonzero;"/>
                </g>
                <g transform="matrix(85.3333,0,0,85.3333,600.624,245)">
                    <path d="M0.393,0.014C0.596,0.014 0.734,-0.132 0.734,-0.376C0.734,-0.619 0.596,-0.758 0.393,-0.758C0.19,-0.758 0.052,-0.62 0.052,-0.376C0.052,-0.132 0.19,0.014 0.393,0.014ZM0.393,-0.14C0.295,-0.14 0.235,-0.232 0.235,-0.376C0.235,-0.52 0.295,-0.605 0.393,-0.605C0.491,-0.605 0.552,-0.52 0.552,-0.376C0.552,-0.232 0.491,-0.14 0.393,-0.14Z" style="fill:rgb(234,235,238);fill-rule:nonzero;"/>
                </g>
                <g transform="matrix(85.3333,0,0,85.3333,667.696,245)">
                    <path d="M0.15,-0L0.371,-0L0.436,-0.324C0.447,-0.381 0.456,-0.441 0.466,-0.497L0.47,-0.497C0.477,-0.441 0.487,-0.381 0.499,-0.324L0.566,-0L0.791,-0L0.92,-0.745L0.751,-0.745L0.702,-0.405C0.693,-0.328 0.683,-0.249 0.674,-0.169L0.669,-0.169C0.654,-0.249 0.641,-0.329 0.626,-0.405L0.549,-0.745L0.398,-0.745L0.322,-0.405C0.307,-0.328 0.292,-0.249 0.278,-0.169L0.274,-0.169C0.264,-0.249 0.254,-0.327 0.244,-0.405L0.197,-0.745L0.015,-0.745L0.15,-0Z" style="fill:rgb(234,235,238);fill-rule:nonzero;"/>
                </g>
                <g transform="matrix(85.3333,0,0,85.3333,747.483,245)">
                    <path d="M0.086,-0L0.569,-0L0.569,-0.15L0.265,-0.15L0.265,-0.308L0.514,-0.308L0.514,-0.458L0.265,-0.458L0.265,-0.596L0.558,-0.596L0.558,-0.745L0.086,-0.745L0.086,-0Z" style="fill:rgb(234,235,238);fill-rule:nonzero;"/>
                </g>
                <g transform="matrix(85.3333,0,0,85.3333,801.243,245)">
                    <path d="M0.086,-0L0.265,-0L0.265,-0.262L0.351,-0.262L0.488,-0L0.688,-0L0.522,-0.295C0.599,-0.331 0.65,-0.401 0.65,-0.51C0.65,-0.69 0.518,-0.745 0.359,-0.745L0.086,-0.745L0.086,-0ZM0.265,-0.403L0.265,-0.603L0.345,-0.603C0.43,-0.603 0.476,-0.58 0.476,-0.51C0.476,-0.44 0.43,-0.403 0.345,-0.403L0.265,-0.403Z" style="fill:rgb(234,235,238);fill-rule:nonzero;"/>
                </g>
                <g transform="matrix(85.3333,0,0,85.3333,542,347.4)">
                    <path d="M0.086,-0L0.265,-0L0.265,-0.247L0.352,-0.247C0.51,-0.247 0.646,-0.325 0.646,-0.502C0.646,-0.686 0.511,-0.745 0.348,-0.745L0.086,-0.745L0.086,-0ZM0.265,-0.388L0.265,-0.603L0.338,-0.603C0.424,-0.603 0.472,-0.577 0.472,-0.502C0.472,-0.429 0.43,-0.388 0.343,-0.388L0.265,-0.388Z" style="fill:rgb(234,235,238);fill-rule:nonzero;"/>
                </g>
                <g transform="matrix(85.3333,0,0,85.3333,600.624,347.4)">
                    <path d="M0.086,-0L0.555,-0L0.555,-0.15L0.265,-0.15L0.265,-0.745L0.086,-0.745L0.086,-0Z" style="fill:rgb(234,235,238);fill-rule:nonzero;"/>
                </g>
                <g transform="matrix(85.3333,0,0,85.3333,650.885,347.4)">
                    <path d="M0.267,-0.372C0.286,-0.446 0.306,-0.533 0.324,-0.611L0.328,-0.611C0.348,-0.535 0.367,-0.446 0.387,-0.372L0.403,-0.309L0.251,-0.309L0.267,-0.372ZM-0.008,-0L0.174,-0L0.217,-0.171L0.437,-0.171L0.48,-0L0.668,-0L0.437,-0.745L0.223,-0.745L-0.008,-0Z" style="fill:rgb(234,235,238);fill-rule:nonzero;"/>
                </g>
                <g transform="matrix(85.3333,0,0,85.3333,705.328,347.4)">
                    <path d="M0.215,-0L0.393,-0L0.393,-0.263L0.618,-0.745L0.431,-0.745L0.369,-0.579C0.348,-0.523 0.328,-0.471 0.307,-0.413L0.303,-0.413C0.282,-0.471 0.263,-0.523 0.243,-0.579L0.181,-0.745L-0.009,-0.745L0.215,-0.263L0.215,-0Z" style="fill:rgb(234,235,238);fill-rule:nonzero;"/>
                </g>
                <g transform="matrix(85.3333,0,0,85.3333,755.333,347.4)">
                    <path d="M0.421,0.014C0.525,0.014 0.617,-0.027 0.669,-0.077L0.669,-0.425L0.392,-0.425L0.392,-0.279L0.51,-0.279L0.51,-0.159C0.494,-0.147 0.466,-0.14 0.44,-0.14C0.301,-0.14 0.235,-0.226 0.235,-0.374C0.235,-0.519 0.314,-0.605 0.424,-0.605C0.486,-0.605 0.525,-0.58 0.562,-0.547L0.656,-0.661C0.605,-0.712 0.527,-0.758 0.418,-0.758C0.219,-0.758 0.052,-0.616 0.052,-0.368C0.052,-0.116 0.215,0.014 0.421,0.014Z" style="fill:rgb(234,235,238);fill-rule:nonzero;"/>
                </g>
                <g transform="matrix(85.3333,0,0,85.3333,817.883,347.4)">
                    <path d="M0.086,-0L0.265,-0L0.265,-0.262L0.351,-0.262L0.488,-0L0.688,-0L0.522,-0.295C0.599,-0.331 0.65,-0.401 0.65,-0.51C0.65,-0.69 0.518,-0.745 0.359,-0.745L0.086,-0.745L0.086,-0ZM0.265,-0.403L0.265,-0.603L0.345,-0.603C0.43,-0.603 0.476,-0.58 0.476,-0.51C0.476,-0.44 0.43,-0.403 0.345,-0.403L0.265,-0.403Z" style="fill:rgb(234,235,238);fill-rule:nonzero;"/>
                </g>
                <g transform="matrix(85.3333,0,0,85.3333,878.299,347.4)">
                    <path d="M0.393,0.014C0.596,0.014 0.734,-0.132 0.734,-0.376C0.734,-0.619 0.596,-0.758 0.393,-0.758C0.19,-0.758 0.052,-0.62 0.052,-0.376C0.052,-0.132 0.19,0.014 0.393,0.014ZM0.393,-0.14C0.295,-0.14 0.235,-0.232 0.235,-0.376C0.235,-0.52 0.295,-0.605 0.393,-0.605C0.491,-0.605 0.552,-0.52 0.552,-0.376C0.552,-0.232 0.491,-0.14 0.393,-0.14Z" style="fill:rgb(234,235,238);fill-rule:nonzero;"/>
                </g>
                <g transform="matrix(85.3333,0,0,85.3333,945.371,347.4)">
                    <path d="M0.384,0.014C0.582,0.014 0.682,-0.099 0.682,-0.35L0.682,-0.745L0.51,-0.745L0.51,-0.331C0.51,-0.19 0.465,-0.14 0.384,-0.14C0.302,-0.14 0.26,-0.19 0.26,-0.331L0.26,-0.745L0.082,-0.745L0.082,-0.35C0.082,-0.099 0.185,0.014 0.384,0.014Z" style="fill:rgb(234,235,238);fill-rule:nonzero;"/>
                </g>
                <g transform="matrix(85.3333,0,0,85.3333,1010.48,347.4)">
                    <path d="M0.086,-0L0.256,-0L0.256,-0.247C0.256,-0.337 0.241,-0.439 0.233,-0.522L0.238,-0.522L0.311,-0.359L0.495,-0L0.677,-0L0.677,-0.745L0.507,-0.745L0.507,-0.498C0.507,-0.409 0.522,-0.302 0.531,-0.223L0.526,-0.223L0.453,-0.388L0.268,-0.745L0.086,-0.745L0.086,-0Z" style="fill:rgb(234,235,238);fill-rule:nonzero;"/>
                </g>
                <g transform="matrix(85.3333,0,0,85.3333,1075.67,347.4)">
                    <path d="M0.086,-0L0.31,-0C0.527,-0 0.677,-0.117 0.677,-0.376C0.677,-0.635 0.527,-0.745 0.3,-0.745L0.086,-0.745L0.086,-0ZM0.265,-0.144L0.265,-0.602L0.289,-0.602C0.409,-0.602 0.494,-0.553 0.494,-0.376C0.494,-0.199 0.409,-0.144 0.289,-0.144L0.265,-0.144Z" style="fill:rgb(234,235,238);fill-rule:nonzero;"/>
                </g>
            </g>
            <path d="M439.671,392.607C441.757,392.607 443.403,391.774 444.698,390.282L443.337,388.679C442.371,389.733 441.252,390.392 439.759,390.392C436.905,390.392 435.105,388.043 435.105,384.2C435.105,380.401 437.037,378.073 439.825,378.073C441.142,378.073 442.152,378.666 442.986,379.523L444.369,377.898C443.381,376.823 441.801,375.859 439.781,375.859C435.697,375.859 432.495,379.017 432.495,384.288C432.495,389.58 435.61,392.607 439.671,392.607Z" style="fill:rgb(194,205,220);fill-rule:nonzero;"/>
            <path d="M452.164,392.607C455.151,392.607 457.849,390.304 457.849,386.285C457.849,382.267 455.151,379.942 452.164,379.942C449.177,379.942 446.479,382.267 446.479,386.285C446.479,390.304 449.177,392.607 452.164,392.607ZM452.164,390.546C450.275,390.546 449.089,388.855 449.089,386.285C449.089,383.738 450.275,382.025 452.164,382.025C454.075,382.025 455.261,383.738 455.261,386.285C455.261,388.855 454.075,390.546 452.164,390.546Z" style="fill:rgb(194,205,220);fill-rule:nonzero;"/>
            <path d="M464.985,392.607C466.341,392.607 467.591,391.883 468.49,390.962L468.578,390.962L468.776,392.321L470.846,392.321L470.846,374.827L468.324,374.827L468.324,379.305L468.433,381.301C467.445,380.468 466.566,379.942 465.183,379.942C462.481,379.942 460.003,382.376 460.003,386.284C460.003,390.304 461.955,392.607 464.985,392.607ZM465.578,390.524C463.689,390.524 462.613,389.009 462.613,386.263C462.613,383.65 463.975,382.047 465.666,382.047C466.566,382.047 467.423,382.332 468.324,383.145L468.324,389.053C467.445,390.063 466.588,390.524 465.578,390.524Z" style="fill:rgb(194,205,220);fill-rule:nonzero;"/>
            <path d="M479.673,392.607C481.254,392.607 482.637,392.081 483.755,391.335L482.878,389.733C482.001,390.304 481.078,390.634 480.002,390.634C477.915,390.634 476.466,389.25 476.268,386.943L484.106,386.943C484.172,386.636 484.237,386.154 484.237,385.649C484.237,382.245 482.505,379.942 479.299,379.942C476.488,379.942 473.79,382.377 473.79,386.285C473.79,390.282 476.4,392.607 479.673,392.607ZM476.246,385.189C476.488,383.08 477.828,381.915 479.343,381.915C481.1,381.915 482.045,383.124 482.045,385.189L476.246,385.189Z" style="fill:rgb(194,205,220);fill-rule:nonzero;"/>
            <path d="M488.41,392.607C489.353,392.607 490.099,391.883 490.099,390.852C490.099,389.799 489.353,389.053 488.41,389.053C487.467,389.053 486.721,389.799 486.721,390.852C486.721,391.883 487.467,392.607 488.41,392.607Z" style="fill:rgb(194,205,220);fill-rule:nonzero;"/>
            <path d="M503.36,392.607C506.896,392.607 509.045,390.502 509.045,387.911C509.045,385.539 507.664,384.353 505.755,383.541L503.536,382.597C502.218,382.07 500.922,381.543 500.922,380.137C500.922,378.864 501.999,378.073 503.646,378.073C505.074,378.073 506.194,378.622 507.203,379.523L508.541,377.898C507.313,376.648 505.535,375.859 503.646,375.859C500.571,375.859 498.335,377.766 498.335,380.313C498.335,382.663 500.067,383.892 501.625,384.551L503.866,385.517C505.359,386.176 506.457,386.637 506.457,388.108C506.457,389.47 505.359,390.392 503.404,390.392C501.845,390.392 500.264,389.646 499.102,388.482L497.61,390.238C499.08,391.73 501.142,392.607 503.36,392.607Z" style="fill:rgb(194,205,220);fill-rule:nonzero;"/>
            <path d="M511.88,392.321L514.402,392.321L514.402,383.759C515.456,382.684 516.225,382.113 517.345,382.113C518.773,382.113 519.388,382.947 519.388,385.033L519.388,392.321L521.91,392.321L521.91,384.725C521.91,381.652 520.77,379.942 518.202,379.942C516.555,379.942 515.347,380.841 514.292,381.85L514.402,379.459L514.402,374.827L511.88,374.827L511.88,392.321Z" style="fill:rgb(194,205,220);fill-rule:nonzero;"/>
            <path d="M528.365,392.607C529.811,392.607 531.104,391.883 532.201,390.941L532.288,390.941L532.486,392.321L534.556,392.321L534.556,385.055C534.556,381.85 533.174,379.942 530.167,379.942C528.234,379.942 526.543,380.731 525.293,381.521L526.236,383.232C527.267,382.574 528.453,382.003 529.727,382.003C531.507,382.003 532.012,383.232 532.034,384.638C527.004,385.186 524.811,386.526 524.811,389.116C524.811,391.248 526.28,392.607 528.365,392.607ZM529.134,390.612C528.058,390.612 527.245,390.129 527.245,388.943C527.245,387.581 528.453,386.659 532.034,386.241L532.034,389.206C531.045,390.107 530.189,390.612 529.134,390.612Z" style="fill:rgb(194,205,220);fill-rule:nonzero;"/>
            <path d="M538.137,392.321L540.659,392.321L540.659,384.793C541.405,382.881 542.591,382.201 543.579,382.201C544.062,382.201 544.369,382.266 544.786,382.398L545.247,380.206C544.883,380.03 544.488,379.942 543.895,379.942C542.6,379.942 541.326,380.863 540.47,382.42L540.404,382.42L540.207,380.249L538.137,380.249L538.137,392.321Z" style="fill:rgb(194,205,220);fill-rule:nonzero;"/>
            <path d="M551.901,392.607C553.482,392.607 554.865,392.081 555.983,391.335L555.106,389.733C554.229,390.304 553.307,390.634 552.23,390.634C550.144,390.634 548.694,389.25 548.496,386.943L556.334,386.943C556.4,386.636 556.466,386.154 556.466,385.649C556.466,382.245 554.733,379.942 551.527,379.942C548.716,379.942 546.018,382.377 546.018,386.285C546.018,390.282 548.628,392.607 551.901,392.607ZM548.474,385.189C548.716,383.08 550.056,381.915 551.571,381.915C553.329,381.915 554.273,383.124 554.273,385.189L548.474,385.189Z" style="fill:rgb(194,205,220);fill-rule:nonzero;"/>
            <path d="M560.638,392.607C561.582,392.607 562.327,391.883 562.327,390.852C562.327,389.799 561.582,389.053 560.638,389.053C559.695,389.053 558.949,389.799 558.949,390.852C558.949,391.883 559.695,392.607 560.638,392.607Z" style="fill:rgb(194,205,220);fill-rule:nonzero;"/>
            <path d="M570.98,392.321L580.769,392.321L580.769,390.173L573.524,390.173L573.524,384.945L579.451,384.945L579.451,382.796L573.524,382.796L573.524,378.315L580.527,378.315L580.527,376.166L570.98,376.166L570.98,392.321Z" style="fill:rgb(194,205,220);fill-rule:nonzero;"/>
            <path d="M583.933,392.321L586.455,392.321L586.455,383.759C587.443,382.662 588.344,382.113 589.157,382.113C590.54,382.113 591.178,382.947 591.178,385.033L591.178,392.321L593.699,392.321L593.699,383.759C594.71,382.662 595.589,382.113 596.423,382.113C597.785,382.113 598.444,382.947 598.444,385.033L598.444,392.321L600.966,392.321L600.966,384.725C600.966,381.652 599.782,379.942 597.258,379.942C595.742,379.942 594.512,380.885 593.327,382.157C592.8,380.775 591.792,379.942 589.991,379.942C588.502,379.942 587.296,380.841 586.266,381.937L586.2,381.937L586.002,380.249L583.933,380.249L583.933,392.321Z" style="fill:rgb(194,205,220);fill-rule:nonzero;"/>
            <path d="M604.613,397.217L607.135,397.217L607.135,393.309L607.048,391.247C608.08,392.124 609.156,392.607 610.232,392.607C612.956,392.607 615.434,390.238 615.434,386.088C615.434,382.376 613.723,379.942 610.672,379.942C609.315,379.942 607.999,380.688 606.946,381.565L606.881,381.565L606.683,380.249L604.613,380.249L604.613,397.217ZM609.749,390.524C609.002,390.524 608.08,390.238 607.135,389.426L607.135,383.518C608.146,382.53 609.046,382.047 609.991,382.047C612.011,382.047 612.824,383.606 612.824,386.132C612.824,388.965 611.506,390.524 609.749,390.524Z" style="fill:rgb(194,205,220);fill-rule:nonzero;"/>
            <path d="M623.273,392.607C626.26,392.607 628.957,390.304 628.957,386.285C628.957,382.267 626.26,379.942 623.273,379.942C620.286,379.942 617.588,382.267 617.588,386.285C617.588,390.304 620.286,392.607 623.273,392.607ZM623.273,390.546C621.384,390.546 620.198,388.855 620.198,386.285C620.198,383.738 621.384,382.025 623.273,382.025C625.184,382.025 626.37,383.738 626.37,386.285C626.37,388.855 625.184,390.546 623.273,390.546Z" style="fill:rgb(194,205,220);fill-rule:nonzero;"/>
            <path d="M633.746,392.321L636.665,392.321L638.136,386.375C638.443,385.231 638.662,384.111 638.904,382.859L639.014,382.859C639.277,384.111 639.497,385.209 639.782,386.351L641.318,392.321L644.347,392.321L647.465,380.249L645.094,380.249L643.535,386.769C643.272,387.954 643.074,389.053 642.833,390.217L642.745,390.217C642.46,389.053 642.218,387.954 641.933,386.769L640.199,380.249L637.872,380.249L636.16,386.769C635.875,387.933 635.633,389.053 635.37,390.217L635.282,390.217C635.063,389.053 634.865,387.954 634.624,386.769L633.021,380.249L630.475,380.249L633.746,392.321Z" style="fill:rgb(194,205,220);fill-rule:nonzero;"/>
            <path d="M654.865,392.607C656.446,392.607 657.829,392.081 658.947,391.335L658.07,389.733C657.193,390.304 656.27,390.634 655.194,390.634C653.107,390.634 651.658,389.25 651.46,386.943L659.298,386.943C659.364,386.636 659.429,386.154 659.429,385.649C659.429,382.245 657.697,379.942 654.491,379.942C651.68,379.942 648.982,382.377 648.982,386.285C648.982,390.282 651.592,392.607 654.865,392.607ZM651.438,385.189C651.68,383.08 653.02,381.915 654.535,381.915C656.292,381.915 657.237,383.124 657.237,385.189L651.438,385.189Z" style="fill:rgb(194,205,220);fill-rule:nonzero;"/>
            <path d="M662.242,392.321L664.764,392.321L664.764,384.793C665.511,382.881 666.696,382.201 667.684,382.201C668.167,382.201 668.474,382.266 668.892,382.398L669.353,380.206C668.988,380.03 668.593,379.942 668,379.942C666.705,379.942 665.432,380.863 664.576,382.42L664.51,382.42L664.312,380.249L662.242,380.249L662.242,392.321Z" style="fill:rgb(194,205,220);fill-rule:nonzero;"/>
            <path d="M670.935,392.607C671.878,392.607 672.624,391.883 672.624,390.852C672.624,389.799 671.878,389.053 670.935,389.053C669.991,389.053 669.246,389.799 669.246,390.852C669.246,391.883 669.991,392.607 670.935,392.607Z" style="fill:rgb(194,205,220);fill-rule:nonzero;"/>
        </g>
    </g>
    <defs>
        <linearGradient id="_Linear1" x1="0" y1="0" x2="1" y2="0" gradientUnits="userSpaceOnUse" gradientTransform="matrix(-246.662,342.343,-342.343,-246.662,1026.01,259.055)"><stop offset="0" style="stop-color:rgb(92,158,255);stop-opacity:1"/><stop offset="1" style="stop-color:rgb(50,120,199);stop-opacity:0"/></linearGradient>
        <linearGradient id="_Linear2" x1="0" y1="0" x2="1" y2="0" gradientUnits="userSpaceOnUse" gradientTransform="matrix(-246.662,342.343,-342.343,-246.662,869.94,377.899)"><stop offset="0" style="stop-color:rgb(92,158,255);stop-opacity:1"/><stop offset="1" style="stop-color:rgb(50,120,199);stop-opacity:0"/></linearGradient>
        <linearGradient id="_Linear3" x1="0" y1="0" x2="1" y2="0" gradientUnits="userSpaceOnUse" gradientTransform="matrix(-246.662,342.343,-342.343,-246.662,593.603,416.205)"><stop offset="0" style="stop-color:rgb(92,158,255);stop-opacity:1"/><stop offset="1" style="stop-color:rgb(50,120,199);stop-opacity:0"/></linearGradient>
        <linearGradient id="_Linear4" x1="0" y1="0" x2="1" y2="0" gradientUnits="userSpaceOnUse" gradientTransform="matrix(-123.11,170.864,-170.864,-123.11,742.673,329.729)"><stop offset="0" style="stop-color:rgb(92,158,255);stop-opacity:1"/><stop offset="1" style="stop-color:rgb(50,120,199);stop-opacity:0"/></linearGradient>
        <linearGradient id="_Linear5" x1="0" y1="0" x2="1" y2="0" gradientUnits="userSpaceOnUse" gradientTransform="matrix(-321.022,445.547,-445.547,-321.022,797.216,111.391)"><stop offset="0" style="stop-color:rgb(92,158,255);stop-opacity:1"/><stop offset="1" style="stop-color:rgb(50,120,199);stop-opacity:0"/></linearGradient>
        <linearGradient id="_Linear6" x1="0" y1="0" x2="1" y2="0" gradientUnits="userSpaceOnUse" gradientTransform="matrix(-246.662,342.343,-342.343,-246.662,1054.25,-88.7045)"><stop offset="0" style="stop-color:rgb(92,158,255);stop-opacity:1"/><stop offset="1" style="stop-color:rgb(50,120,199);stop-opacity:0"/></linearGradient>
        <linearGradient id="_Linear7" x1="0" y1="0" x2="1" y2="0" gradientUnits="userSpaceOnUse" gradientTransform="matrix(-109.5,151.975,-151.975,-109.5,1023.98,77.6143)"><stop offset="0" style="stop-color:rgb(92,158,255);stop-opacity:1"/><stop offset="1" style="stop-color:rgb(50,120,199);stop-opacity:0"/></linearGradient>
        <linearGradient id="_Linear8" x1="0" y1="0" x2="1" y2="0" gradientUnits="userSpaceOnUse" gradientTransform="matrix(-207.664,288.217,-288.217,-207.664,631.94,210.695)"><stop offset="0" style="stop-color:rgb(92,158,255);stop-opacity:1"/><stop offset="1" style="stop-color:rgb(50,120,199);stop-opacity:0"/></linearGradient>
        <linearGradient id="_Linear9" x1="0" y1="0" x2="1" y2="0" gradientUnits="userSpaceOnUse" gradientTransform="matrix(-246.662,342.343,-342.343,-246.662,1026.01,259.055)"><stop offset="0" style="stop-color:rgb(92,158,255);stop-opacity:1"/><stop offset="1" style="stop-color:rgb(50,120,199);stop-opacity:0"/></linearGradient>
        <linearGradient id="_Linear10" x1="0" y1="0" x2="1" y2="0" gradientUnits="userSpaceOnUse" gradientTransform="matrix(-246.662,342.343,-342.343,-246.662,869.94,377.899)"><stop offset="0" style="stop-color:rgb(92,158,255);stop-opacity:1"/><stop offset="1" style="stop-color:rgb(50,120,199);stop-opacity:0"/></linearGradient>
        <linearGradient id="_Linear11" x1="0" y1="0" x2="1" y2="0" gradientUnits="userSpaceOnUse" gradientTransform="matrix(-246.662,342.343,-342.343,-246.662,593.603,416.205)"><stop offset="0" style="stop-color:rgb(92,158,255);stop-opacity:1"/><stop offset="1" style="stop-color:rgb(50,120,199);stop-opacity:0"/></linearGradient>
        <linearGradient id="_Linear12" x1="0" y1="0" x2="1" y2="0" gradientUnits="userSpaceOnUse" gradientTransform="matrix(-246.662,342.343,-342.343,-246.662,128.458,78.2276)"><stop offset="0" style="stop-color:rgb(92,158,255);stop-opacity:1"/><stop offset="1" style="stop-color:rgb(50,120,199);stop-opacity:0"/></linearGradient>
        <linearGradient id="_Linear13" x1="0" y1="0" x2="1" y2="0" gradientUnits="userSpaceOnUse" gradientTransform="matrix(-187.778,260.618,-260.618,-187.778,286.464,-67.5374)"><stop offset="0" style="stop-color:rgb(92,158,255);stop-opacity:1"/><stop offset="1" style="stop-color:rgb(50,120,199);stop-opacity:0"/></linearGradient>
        <linearGradient id="_Linear14" x1="0" y1="0" x2="1" y2="0" gradientUnits="userSpaceOnUse" gradientTransform="matrix(-123.11,170.864,-170.864,-123.11,1031.37,463.933)"><stop offset="0" style="stop-color:rgb(92,158,255);stop-opacity:1"/><stop offset="1" style="stop-color:rgb(50,120,199);stop-opacity:0"/></linearGradient>
        <linearGradient id="_Linear15" x1="0" y1="0" x2="1" y2="0" gradientUnits="userSpaceOnUse" gradientTransform="matrix(-321.022,445.547,-445.547,-321.022,797.216,111.391)"><stop offset="0" style="stop-color:rgb(92,158,255);stop-opacity:1"/><stop offset="1" style="stop-color:rgb(50,120,199);stop-opacity:0"/></linearGradient>
        <linearGradient id="_Linear16" x1="0" y1="0" x2="1" y2="0" gradientUnits="userSpaceOnUse" gradientTransform="matrix(-246.662,342.343,-342.343,-246.662,1054.25,-88.7045)"><stop offset="0" style="stop-color:rgb(92,158,255);stop-opacity:1"/><stop offset="1" style="stop-color:rgb(50,120,199);stop-opacity:0"/></linearGradient>
        <linearGradient id="_Linear17" x1="0" y1="0" x2="1" y2="0" gradientUnits="userSpaceOnUse" gradientTransform="matrix(-109.5,151.975,-151.975,-109.5,1023.98,77.6143)"><stop offset="0" style="stop-color:rgb(92,158,255);stop-opacity:1"/><stop offset="1" style="stop-color:rgb(50,120,199);stop-opacity:0"/></linearGradient>
        <linearGradient id="_Linear18" x1="0" y1="0" x2="1" y2="0" gradientUnits="userSpaceOnUse" gradientTransform="matrix(-207.664,288.217,-288.217,-207.664,631.94,210.695)"><stop offset="0" style="stop-color:rgb(92,158,255);stop-opacity:1"/><stop offset="1" style="stop-color:rgb(50,120,199);stop-opacity:0"/></linearGradient>
        <linearGradient id="_Linear19" x1="0" y1="0" x2="1" y2="0" gradientUnits="userSpaceOnUse" gradientTransform="matrix(55.7497,-50.321,50.321,55.7497,228.516,234.806)"><stop offset="0" style="stop-color:rgb(125,70,216);stop-opacity:1"/><stop offset="1" style="stop-color:rgb(0,65,241);stop-opacity:1"/></linearGradient>
        <linearGradient id="_Linear20" x1="0" y1="0" x2="1" y2="0" gradientUnits="userSpaceOnUse" gradientTransform="matrix(-61.9153,-50.026,50.026,-61.9153,354.882,234.324)"><stop offset="0" style="stop-color:rgb(49,120,198);stop-opacity:1"/><stop offset="1" style="stop-color:rgb(0,65,241);stop-opacity:1"/></linearGradient>
        <linearGradient id="_Linear22" x1="0" y1="0" x2="1" y2="0" gradientUnits="userSpaceOnUse" gradientTransform="matrix(53.1323,-53.1323,53.1323,53.1323,144.726,267.069)"><stop offset="0" style="stop-color:rgb(49,120,198);stop-opacity:1"/><stop offset="1" style="stop-color:rgb(92,158,255);stop-opacity:1"/></linearGradient>
        <linearGradient id="_Linear23" x1="0" y1="0" x2="1" y2="0" gradientUnits="userSpaceOnUse" gradientTransform="matrix(53.1323,-53.1323,53.1323,53.1323,212.809,165.84)"><stop offset="0" style="stop-color:rgb(49,120,198);stop-opacity:0"/><stop offset="1" style="stop-color:rgb(92,158,255);stop-opacity:0"/></linearGradient>
        <linearGradient id="_Linear24" x1="0" y1="0" x2="1" y2="0" gradientUnits="userSpaceOnUse" gradientTransform="matrix(53.1323,-53.1323,53.1323,53.1323,159.677,218.972)"><stop offset="0" style="stop-color:rgb(49,120,198);stop-opacity:1"/><stop offset="1" style="stop-color:rgb(92,158,255);stop-opacity:1"/></linearGradient>
        <linearGradient id="_Linear25" x1="0" y1="0" x2="1" y2="0" gradientUnits="userSpaceOnUse" gradientTransform="matrix(53.1323,-53.1323,53.1323,53.1323,197.858,213.936)"><stop offset="0" style="stop-color:rgb(49,120,198);stop-opacity:1"/><stop offset="1" style="stop-color:rgb(92,158,255);stop-opacity:1"/></linearGradient>
        <linearGradient id="_Linear26" x1="0" y1="0" x2="1" y2="0" gradientUnits="userSpaceOnUse" gradientTransform="matrix(53.1323,-53.1323,53.1323,53.1323,144.726,267.069)"><stop offset="0" style="stop-color:rgb(49,120,198);stop-opacity:1"/><stop offset="1" style="stop-color:rgb(92,158,255);stop-opacity:1"/></linearGradient>
        <linearGradient id="_Linear27" x1="0" y1="0" x2="1" y2="0" gradientUnits="userSpaceOnUse" gradientTransform="matrix(53.1323,-53.1323,53.1323,53.1323,159.677,218.972)"><stop offset="0" style="stop-color:rgb(49,120,198);stop-opacity:1"/><stop offset="1" style="stop-color:rgb(92,158,255);stop-opacity:1"/></linearGradient>
        <linearGradient id="_Linear28" x1="0" y1="0" x2="1" y2="0" gradientUnits="userSpaceOnUse" gradientTransform="matrix(53.1323,-53.1323,53.1323,53.1323,197.858,213.936)"><stop offset="0" style="stop-color:rgb(49,120,198);stop-opacity:1"/><stop offset="1" style="stop-color:rgb(92,158,255);stop-opacity:1"/></linearGradient>
        <linearGradient id="_Linear29" x1="0" y1="0" x2="1" y2="0" gradientUnits="userSpaceOnUse" gradientTransform="matrix(53.1323,-53.1323,53.1323,53.1323,146.955,297.923)"><stop offset="0" style="stop-color:rgb(49,120,198);stop-opacity:1"/><stop offset="1" style="stop-color:rgb(92,158,255);stop-opacity:1"/></linearGradient>
        <linearGradient id="_Linear30" x1="0" y1="0" x2="1" y2="0" gradientUnits="userSpaceOnUse" gradientTransform="matrix(53.1323,-53.1323,53.1323,53.1323,185.137,292.887)"><stop offset="0" style="stop-color:rgb(49,120,198);stop-opacity:1"/><stop offset="1" style="stop-color:rgb(92,158,255);stop-opacity:1"/></linearGradient>
        <linearGradient id="_Linear31" x1="0" y1="0" x2="1" y2="0" gradientUnits="userSpaceOnUse" gradientTransform="matrix(53.1323,-53.1323,53.1323,53.1323,132.005,346.019)"><stop offset="0" style="stop-color:rgb(49,120,198);stop-opacity:1"/><stop offset="1" style="stop-color:rgb(92,158,255);stop-opacity:1"/></linearGradient>
        <linearGradient id="_Linear32" x1="0" y1="0" x2="1" y2="0" gradientUnits="userSpaceOnUse" gradientTransform="matrix(53.1323,-53.1323,53.1323,53.1323,200.088,244.79)"><stop offset="0" style="stop-color:rgb(49,120,198);stop-opacity:1"/><stop offset="1" style="stop-color:rgb(92,158,255);stop-opacity:1"/></linearGradient>
        <linearGradient id="_Linear33" x1="0" y1="0" x2="1" y2="0" gradientUnits="userSpaceOnUse" gradientTransform="matrix(53.1323,-53.1323,53.1323,53.1323,238.269,239.755)"><stop offset="0" style="stop-color:rgb(49,120,198);stop-opacity:1"/><stop offset="1" style="stop-color:rgb(92,158,255);stop-opacity:1"/></linearGradient>
        <linearGradient id="_Linear34" x1="0" y1="0" x2="1" y2="0" gradientUnits="userSpaceOnUse" gradientTransform="matrix(53.1323,-53.1323,53.1323,53.1323,173.054,338.053)"><stop offset="0" style="stop-color:rgb(49,120,198);stop-opacity:1"/><stop offset="1" style="stop-color:rgb(92,158,255);stop-opacity:1"/></linearGradient>
        <linearGradient id="_Linear35" x1="0" y1="0" x2="1" y2="0" gradientUnits="userSpaceOnUse" gradientTransform="matrix(53.1323,-53.1323,53.1323,53.1323,211.236,333.017)"><stop offset="0" style="stop-color:rgb(49,120,198);stop-opacity:1"/><stop offset="1" style="stop-color:rgb(92,158,255);stop-opacity:1"/></linearGradient>
        <linearGradient id="_Linear36" x1="0" y1="0" x2="1" y2="0" gradientUnits="userSpaceOnUse" gradientTransform="matrix(53.1323,-53.1323,53.1323,53.1323,158.103,386.15)"><stop offset="0" style="stop-color:rgb(49,120,198);stop-opacity:1"/><stop offset="1" style="stop-color:rgb(92,158,255);stop-opacity:1"/></linearGradient>
        <linearGradient id="_Linear37" x1="0" y1="0" x2="1" y2="0" gradientUnits="userSpaceOnUse" gradientTransform="matrix(53.7367,-53.7367,53.7367,53.7367,158.595,418.599)"><stop offset="0" style="stop-color:rgb(49,120,198);stop-opacity:1"/><stop offset="1" style="stop-color:rgb(92,158,255);stop-opacity:1"/></linearGradient>
        <linearGradient id="_Linear38" x1="0" y1="0" x2="1" y2="0" gradientUnits="userSpaceOnUse" gradientTransform="matrix(53.1323,-53.1323,53.1323,53.1323,120.003,391.309)"><stop offset="0" style="stop-color:rgb(49,120,198);stop-opacity:1"/><stop offset="1" style="stop-color:rgb(92,158,255);stop-opacity:1"/></linearGradient>
        <linearGradient id="_Linear39" x1="0" y1="0" x2="1" y2="0" gradientUnits="userSpaceOnUse" gradientTransform="matrix(53.1323,-53.1323,53.1323,53.1323,279.319,231.788)"><stop offset="0" style="stop-color:rgb(49,120,198);stop-opacity:1"/><stop offset="1" style="stop-color:rgb(92,158,255);stop-opacity:1"/></linearGradient>
        <linearGradient id="_Linear40" x1="0" y1="0" x2="1" y2="0" gradientUnits="userSpaceOnUse" gradientTransform="matrix(53.1323,-53.1323,53.1323,53.1323,226.187,284.921)"><stop offset="0" style="stop-color:rgb(49,120,198);stop-opacity:1"/><stop offset="1" style="stop-color:rgb(92,158,255);stop-opacity:1"/></linearGradient>
        <linearGradient id="_Linear41" x1="0" y1="0" x2="1" y2="0" gradientUnits="userSpaceOnUse" gradientTransform="matrix(53.1323,-53.1323,53.1323,53.1323,264.368,279.885)"><stop offset="0" style="stop-color:rgb(49,120,198);stop-opacity:1"/><stop offset="1" style="stop-color:rgb(92,158,255);stop-opacity:1"/></linearGradient>
        <linearGradient id="_Linear42" x1="0" y1="0" x2="1" y2="0" gradientUnits="userSpaceOnUse" gradientTransform="matrix(53.1323,-53.1323,53.1323,53.1323,316.756,227.497)"><stop offset="0" style="stop-color:rgb(49,120,198);stop-opacity:1"/><stop offset="1" style="stop-color:rgb(92,158,255);stop-opacity:1"/></linearGradient>
        <linearGradient id="_Linear43" x1="0" y1="0" x2="1" y2="0" gradientUnits="userSpaceOnUse" gradientTransform="matrix(53.1323,-53.1323,53.1323,53.1323,211.782,365.555)"><stop offset="0" style="stop-color:rgb(49,120,198);stop-opacity:1"/><stop offset="1" style="stop-color:rgb(92,158,255);stop-opacity:1"/></linearGradient>
        <linearGradient id="_Linear44" x1="0" y1="0" x2="1" y2="0" gradientUnits="userSpaceOnUse" gradientTransform="matrix(53.1323,-53.1323,53.1323,53.1323,249.963,360.52)"><stop offset="0" style="stop-color:rgb(49,120,198);stop-opacity:1"/><stop offset="1" style="stop-color:rgb(92,158,255);stop-opacity:1"/></linearGradient>
        <linearGradient id="_Linear45" x1="0" y1="0" x2="1" y2="0" gradientUnits="userSpaceOnUse" gradientTransform="matrix(53.1323,-53.1323,53.1323,53.1323,196.831,413.652)"><stop offset="0" style="stop-color:rgb(49,120,198);stop-opacity:1"/><stop offset="1" style="stop-color:rgb(92,158,255);stop-opacity:1"/></linearGradient>
        <linearGradient id="_Linear46" x1="0" y1="0" x2="1" y2="0" gradientUnits="userSpaceOnUse" gradientTransform="matrix(53.1323,-53.1323,53.1323,53.1323,318.047,259.29)"><stop offset="0" style="stop-color:rgb(49,120,198);stop-opacity:1"/><stop offset="1" style="stop-color:rgb(92,158,255);stop-opacity:1"/></linearGradient>
        <linearGradient id="_Linear47" x1="0" y1="0" x2="1" y2="0" gradientUnits="userSpaceOnUse" gradientTransform="matrix(53.1323,-53.1323,53.1323,53.1323,264.914,312.423)"><stop offset="0" style="stop-color:rgb(49,120,198);stop-opacity:1"/><stop offset="1" style="stop-color:rgb(92,158,255);stop-opacity:1"/></linearGradient>
        <linearGradient id="_Linear48" x1="0" y1="0" x2="1" y2="0" gradientUnits="userSpaceOnUse" gradientTransform="matrix(53.1323,-53.1323,53.1323,53.1323,303.096,307.387)"><stop offset="0" style="stop-color:rgb(49,120,198);stop-opacity:1"/><stop offset="1" style="stop-color:rgb(92,158,255);stop-opacity:1"/></linearGradient>
        <linearGradient id="_Linear49" x1="0" y1="0" x2="1" y2="0" gradientUnits="userSpaceOnUse" gradientTransform="matrix(53.1323,-53.1323,53.1323,53.1323,233.148,410.217)"><stop offset="0" style="stop-color:rgb(49,120,198);stop-opacity:1"/><stop offset="1" style="stop-color:rgb(92,158,255);stop-opacity:1"/></linearGradient>
        <linearGradient id="_Linear50" x1="0" y1="0" x2="1" y2="0" gradientUnits="userSpaceOnUse" gradientTransform="matrix(53.1323,-53.1323,53.1323,53.1323,271.329,405.181)"><stop offset="0" style="stop-color:rgb(49,120,198);stop-opacity:1"/><stop offset="1" style="stop-color:rgb(92,158,255);stop-opacity:1"/></linearGradient>
        <linearGradient id="_Linear51" x1="0" y1="0" x2="1" y2="0" gradientUnits="userSpaceOnUse" gradientTransform="matrix(53.1323,-53.1323,53.1323,53.1323,339.412,303.952)"><stop offset="0" style="stop-color:rgb(49,120,198);stop-opacity:1"/><stop offset="1" style="stop-color:rgb(92,158,255);stop-opacity:1"/></linearGradient>
        <linearGradient id="_Linear52" x1="0" y1="0" x2="1" y2="0" gradientUnits="userSpaceOnUse" gradientTransform="matrix(53.1323,-53.1323,53.1323,53.1323,286.28,357.085)"><stop offset="0" style="stop-color:rgb(49,120,198);stop-opacity:1"/><stop offset="1" style="stop-color:rgb(92,158,255);stop-opacity:1"/></linearGradient>
        <linearGradient id="_Linear53" x1="0" y1="0" x2="1" y2="0" gradientUnits="userSpaceOnUse" gradientTransform="matrix(53.1323,-53.1323,53.1323,53.1323,324.461,352.049)"><stop offset="0" style="stop-color:rgb(49,120,198);stop-opacity:1"/><stop offset="1" style="stop-color:rgb(92,158,255);stop-opacity:1"/></linearGradient>
        <linearGradient id="_Linear54" x1="0" y1="0" x2="1" y2="0" gradientUnits="userSpaceOnUse" gradientTransform="matrix(53.1323,-53.1323,53.1323,53.1323,233.148,410.217)"><stop offset="0" style="stop-color:rgb(49,120,198);stop-opacity:1"/><stop offset="1" style="stop-color:rgb(92,158,255);stop-opacity:1"/></linearGradient>
        <linearGradient id="_Linear55" x1="0" y1="0" x2="1" y2="0" gradientUnits="userSpaceOnUse" gradientTransform="matrix(53.1323,-53.1323,53.1323,53.1323,271.329,405.181)"><stop offset="0" style="stop-color:rgb(49,120,198);stop-opacity:1"/><stop offset="1" style="stop-color:rgb(92,158,255);stop-opacity:1"/></linearGradient>
        <linearGradient id="_Linear56" x1="0" y1="0" x2="1" y2="0" gradientUnits="userSpaceOnUse" gradientTransform="matrix(53.1323,-53.1323,53.1323,53.1323,339.412,303.952)"><stop offset="0" style="stop-color:rgb(49,120,198);stop-opacity:1"/><stop offset="1" style="stop-color:rgb(92,158,255);stop-opacity:1"/></linearGradient>
        <linearGradient id="_Linear57" x1="0" y1="0" x2="1" y2="0" gradientUnits="userSpaceOnUse" gradientTransform="matrix(53.1323,-53.1323,53.1323,53.1323,286.28,357.085)"><stop offset="0" style="stop-color:rgb(49,120,198);stop-opacity:1"/><stop offset="1" style="stop-color:rgb(92,158,255);stop-opacity:1"/></linearGradient>
        <linearGradient id="_Linear58" x1="0" y1="0" x2="1" y2="0" gradientUnits="userSpaceOnUse" gradientTransform="matrix(53.1323,-53.1323,53.1323,53.1323,324.461,352.049)"><stop offset="0" style="stop-color:rgb(49,120,198);stop-opacity:1"/><stop offset="1" style="stop-color:rgb(92,158,255);stop-opacity:1"/></linearGradient>
        <linearGradient id="_Linear59" x1="0" y1="0" x2="1" y2="0" gradientUnits="userSpaceOnUse" gradientTransform="matrix(53.1323,-53.1323,53.1323,53.1323,273.559,436.035)"><stop offset="0" style="stop-color:rgb(49,120,198);stop-opacity:1"/><stop offset="1" style="stop-color:rgb(92,158,255);stop-opacity:1"/></linearGradient>
        <linearGradient id="_Linear60" x1="0" y1="0" x2="1" y2="0" gradientUnits="userSpaceOnUse" gradientTransform="matrix(53.1323,-53.1323,53.1323,53.1323,326.691,382.903)"><stop offset="0" style="stop-color:rgb(49,120,198);stop-opacity:1"/><stop offset="1" style="stop-color:rgb(92,158,255);stop-opacity:1"/></linearGradient>
        <linearGradient id="_Linear61" x1="0" y1="0" x2="1" y2="0" gradientUnits="userSpaceOnUse" gradientTransform="matrix(70.9812,-72.3039,72.3039,70.9812,303.096,307.387)"><stop offset="0" style="stop-color:rgb(49,120,198);stop-opacity:1"/><stop offset="1" style="stop-color:rgb(92,158,255);stop-opacity:1"/></linearGradient>
        <linearGradient id="_Linear62" x1="0" y1="0" x2="1" y2="0" gradientUnits="userSpaceOnUse" gradientTransform="matrix(53.8265,79.57,-79.57,53.8265,141.456,295.947)"><stop offset="0" style="stop-color:rgb(125,70,216);stop-opacity:1"/><stop offset="1" style="stop-color:rgb(249,224,110);stop-opacity:1"/></linearGradient>
    </defs>
</svg>
