<?xml version="1.0" encoding="UTF-8" standalone="no"?>
<!DOCTYPE svg PUBLIC "-//W3C//DTD SVG 1.1//EN" "http://www.w3.org/Graphics/SVG/1.1/DTD/svg11.dtd">
<svg width="100%" height="100%" viewBox="0 0 1024 576" version="1.1" xmlns="http://www.w3.org/2000/svg" xmlns:xlink="http://www.w3.org/1999/xlink" xml:space="preserve" xmlns:serif="http://www.serif.com/" style="fill-rule:evenodd;clip-rule:evenodd;stroke-linejoin:round;stroke-miterlimit:2;">
    <g>
        <rect id="Fill" x="0" y="0" width="1024" height="576" style="fill:white;"/>
        <g opacity="0.2">
            <path d="M1053.56,331.551C1078.5,297.313 1126.55,289.765 1160.78,314.706C1195.02,339.647 1202.57,387.692 1177.63,421.93L915.663,781.551L791.593,691.172L1053.56,331.551Z" style="fill:url(#_Linear1);"/>
            <path d="M861.966,477.442C886.907,443.203 934.953,435.655 969.191,460.596C1003.43,485.537 1010.98,533.583 986.037,567.821L724.07,927.441L600,837.062L861.966,477.442Z" style="fill:url(#_Linear2);"/>
            <path d="M522.743,524.465C547.683,490.227 595.729,482.679 629.967,507.619C664.205,532.56 671.754,580.606 646.813,614.844L384.846,974.465L260.776,884.086L522.743,524.465Z" style="fill:url(#_Linear3);"/>
            <path d="M757.261,410.576C769.709,393.487 793.689,389.72 810.777,402.168C827.865,414.616 831.633,438.596 819.185,455.684L688.436,635.172L626.513,590.063L757.261,410.576Z" style="fill:url(#_Linear4);"/>
            <path d="M741.683,154.939C774.142,110.379 836.672,100.555 881.232,133.015C925.792,165.474 935.615,228.004 903.156,272.564L562.215,740.598L400.742,622.973L741.683,154.939Z" style="fill:url(#_Linear5);"/>
            <path d="M1088.22,-95.349C1113.16,-129.587 1161.21,-137.135 1195.45,-112.194C1229.69,-87.253 1237.24,-39.208 1212.3,-4.97L950.328,354.651L826.258,264.272L1088.22,-95.349Z" style="fill:url(#_Linear6);"/>
            <path d="M1108.26,100.234C1119.33,85.035 1140.66,81.684 1155.86,92.756C1171.06,103.827 1174.41,125.156 1163.34,140.355L1047.04,300L991.964,259.878L1108.26,100.234Z" style="fill:url(#_Linear7);"/>
            <path d="M586.067,269.745C607.064,240.92 647.514,234.566 676.339,255.563C705.164,276.561 711.518,317.01 690.521,345.835L469.973,648.598L365.519,572.508L586.067,269.745Z" style="fill:url(#_Linear8);"/>
            <path d="M1053.56,331.551C1078.5,297.313 1126.55,289.765 1160.78,314.706C1195.02,339.647 1202.57,387.692 1177.63,421.93L915.663,781.551L791.593,691.172L1053.56,331.551Z" style="fill:url(#_Linear9);"/>
            <path d="M861.966,477.442C886.907,443.203 934.953,435.655 969.191,460.596C1003.43,485.537 1010.98,533.583 986.037,567.821L724.07,927.441L600,837.062L861.966,477.442Z" style="fill:url(#_Linear10);"/>
            <path d="M522.743,524.465C547.683,490.227 595.729,482.679 629.967,507.619C664.205,532.56 671.754,580.606 646.813,614.844L384.846,974.465L260.776,884.086L522.743,524.465Z" style="fill:url(#_Linear11);"/>
            <path d="M-48.257,109.573C-23.317,75.335 24.729,67.787 58.967,92.727C93.205,117.668 100.754,165.714 75.813,199.952L-186.154,559.573L-310.224,469.194L-48.257,109.573Z" style="fill:url(#_Linear12);"/>
            <path d="M170.262,-73.051C189.249,-99.115 225.825,-104.862 251.89,-85.875C277.954,-66.888 283.701,-30.312 264.714,-4.247L65.285,269.524L-29.167,200.721L170.262,-73.051Z" style="fill:url(#_Linear13);"/>
            <path d="M1111.66,575.32C1124.11,558.232 1148.08,554.464 1165.17,566.912C1182.26,579.36 1186.03,603.34 1173.58,620.429L1042.83,799.916L980.908,754.808L1111.66,575.32Z" style="fill:url(#_Linear14);"/>
            <path d="M741.683,154.939C774.142,110.379 836.672,100.555 881.232,133.015C925.792,165.474 935.615,228.004 903.156,272.564L562.215,740.598L400.742,622.973L741.683,154.939Z" style="fill:url(#_Linear15);"/>
            <path d="M1088.22,-95.349C1113.16,-129.587 1161.21,-137.135 1195.45,-112.194C1229.69,-87.253 1237.24,-39.208 1212.3,-4.97L950.328,354.651L826.258,264.272L1088.22,-95.349Z" style="fill:url(#_Linear16);"/>
            <path d="M1108.26,100.234C1119.33,85.035 1140.66,81.684 1155.86,92.756C1171.06,103.827 1174.41,125.156 1163.34,140.355L1047.04,300L991.964,259.878L1108.26,100.234Z" style="fill:url(#_Linear17);"/>
            <path d="M586.067,269.745C607.064,240.92 647.514,234.566 676.339,255.563C705.164,276.561 711.518,317.01 690.521,345.835L469.973,648.598L365.519,572.508L586.067,269.745Z" style="fill:url(#_Linear18);"/>
        </g>
        <g transform="matrix(0.823271,0,0,0.823271,-21.0154,54.3285)">
            <g transform="matrix(85.3333,0,0,85.3333,542,245)">
                <path d="M0.086,-0L0.265,-0L0.265,-0.247L0.352,-0.247C0.51,-0.247 0.646,-0.325 0.646,-0.502C0.646,-0.686 0.511,-0.745 0.348,-0.745L0.086,-0.745L0.086,-0ZM0.265,-0.388L0.265,-0.603L0.338,-0.603C0.424,-0.603 0.472,-0.577 0.472,-0.502C0.472,-0.429 0.43,-0.388 0.343,-0.388L0.265,-0.388Z" style="fill:rgb(234,235,238);fill-rule:nonzero;"/>
            </g>
            <g transform="matrix(85.3333,0,0,85.3333,600.624,245)">
                <path d="M0.393,0.014C0.596,0.014 0.734,-0.132 0.734,-0.376C0.734,-0.619 0.596,-0.758 0.393,-0.758C0.19,-0.758 0.052,-0.62 0.052,-0.376C0.052,-0.132 0.19,0.014 0.393,0.014ZM0.393,-0.14C0.295,-0.14 0.235,-0.232 0.235,-0.376C0.235,-0.52 0.295,-0.605 0.393,-0.605C0.491,-0.605 0.552,-0.52 0.552,-0.376C0.552,-0.232 0.491,-0.14 0.393,-0.14Z" style="fill:rgb(234,235,238);fill-rule:nonzero;"/>
            </g>
            <g transform="matrix(85.3333,0,0,85.3333,667.696,245)">
                <path d="M0.15,-0L0.371,-0L0.436,-0.324C0.447,-0.381 0.456,-0.441 0.466,-0.497L0.47,-0.497C0.477,-0.441 0.487,-0.381 0.499,-0.324L0.566,-0L0.791,-0L0.92,-0.745L0.751,-0.745L0.702,-0.405C0.693,-0.328 0.683,-0.249 0.674,-0.169L0.669,-0.169C0.654,-0.249 0.641,-0.329 0.626,-0.405L0.549,-0.745L0.398,-0.745L0.322,-0.405C0.307,-0.328 0.292,-0.249 0.278,-0.169L0.274,-0.169C0.264,-0.249 0.254,-0.327 0.244,-0.405L0.197,-0.745L0.015,-0.745L0.15,-0Z" style="fill:rgb(234,235,238);fill-rule:nonzero;"/>
            </g>
            <g transform="matrix(85.3333,0,0,85.3333,747.483,245)">
                <path d="M0.086,-0L0.569,-0L0.569,-0.15L0.265,-0.15L0.265,-0.308L0.514,-0.308L0.514,-0.458L0.265,-0.458L0.265,-0.596L0.558,-0.596L0.558,-0.745L0.086,-0.745L0.086,-0Z" style="fill:rgb(234,235,238);fill-rule:nonzero;"/>
            </g>
            <g transform="matrix(85.3333,0,0,85.3333,801.243,245)">
                <path d="M0.086,-0L0.265,-0L0.265,-0.262L0.351,-0.262L0.488,-0L0.688,-0L0.522,-0.295C0.599,-0.331 0.65,-0.401 0.65,-0.51C0.65,-0.69 0.518,-0.745 0.359,-0.745L0.086,-0.745L0.086,-0ZM0.265,-0.403L0.265,-0.603L0.345,-0.603C0.43,-0.603 0.476,-0.58 0.476,-0.51C0.476,-0.44 0.43,-0.403 0.345,-0.403L0.265,-0.403Z" style="fill:rgb(234,235,238);fill-rule:nonzero;"/>
            </g>
            <g transform="matrix(85.3333,0,0,85.3333,542,347.4)">
                <path d="M0.086,-0L0.265,-0L0.265,-0.247L0.352,-0.247C0.51,-0.247 0.646,-0.325 0.646,-0.502C0.646,-0.686 0.511,-0.745 0.348,-0.745L0.086,-0.745L0.086,-0ZM0.265,-0.388L0.265,-0.603L0.338,-0.603C0.424,-0.603 0.472,-0.577 0.472,-0.502C0.472,-0.429 0.43,-0.388 0.343,-0.388L0.265,-0.388Z" style="fill:rgb(234,235,238);fill-rule:nonzero;"/>
            </g>
            <g transform="matrix(85.3333,0,0,85.3333,600.624,347.4)">
                <path d="M0.086,-0L0.555,-0L0.555,-0.15L0.265,-0.15L0.265,-0.745L0.086,-0.745L0.086,-0Z" style="fill:rgb(234,235,238);fill-rule:nonzero;"/>
            </g>
            <g transform="matrix(85.3333,0,0,85.3333,650.885,347.4)">
                <path d="M0.267,-0.372C0.286,-0.446 0.306,-0.533 0.324,-0.611L0.328,-0.611C0.348,-0.535 0.367,-0.446 0.387,-0.372L0.403,-0.309L0.251,-0.309L0.267,-0.372ZM-0.008,-0L0.174,-0L0.217,-0.171L0.437,-0.171L0.48,-0L0.668,-0L0.437,-0.745L0.223,-0.745L-0.008,-0Z" style="fill:rgb(234,235,238);fill-rule:nonzero;"/>
            </g>
            <g transform="matrix(85.3333,0,0,85.3333,705.328,347.4)">
                <path d="M0.215,-0L0.393,-0L0.393,-0.263L0.618,-0.745L0.431,-0.745L0.369,-0.579C0.348,-0.523 0.328,-0.471 0.307,-0.413L0.303,-0.413C0.282,-0.471 0.263,-0.523 0.243,-0.579L0.181,-0.745L-0.009,-0.745L0.215,-0.263L0.215,-0Z" style="fill:rgb(234,235,238);fill-rule:nonzero;"/>
            </g>
            <g transform="matrix(85.3333,0,0,85.3333,755.333,347.4)">
                <path d="M0.421,0.014C0.525,0.014 0.617,-0.027 0.669,-0.077L0.669,-0.425L0.392,-0.425L0.392,-0.279L0.51,-0.279L0.51,-0.159C0.494,-0.147 0.466,-0.14 0.44,-0.14C0.301,-0.14 0.235,-0.226 0.235,-0.374C0.235,-0.519 0.314,-0.605 0.424,-0.605C0.486,-0.605 0.525,-0.58 0.562,-0.547L0.656,-0.661C0.605,-0.712 0.527,-0.758 0.418,-0.758C0.219,-0.758 0.052,-0.616 0.052,-0.368C0.052,-0.116 0.215,0.014 0.421,0.014Z" style="fill:rgb(234,235,238);fill-rule:nonzero;"/>
            </g>
            <g transform="matrix(85.3333,0,0,85.3333,817.883,347.4)">
                <path d="M0.086,-0L0.265,-0L0.265,-0.262L0.351,-0.262L0.488,-0L0.688,-0L0.522,-0.295C0.599,-0.331 0.65,-0.401 0.65,-0.51C0.65,-0.69 0.518,-0.745 0.359,-0.745L0.086,-0.745L0.086,-0ZM0.265,-0.403L0.265,-0.603L0.345,-0.603C0.43,-0.603 0.476,-0.58 0.476,-0.51C0.476,-0.44 0.43,-0.403 0.345,-0.403L0.265,-0.403Z" style="fill:rgb(234,235,238);fill-rule:nonzero;"/>
            </g>
            <g transform="matrix(85.3333,0,0,85.3333,878.299,347.4)">
                <path d="M0.393,0.014C0.596,0.014 0.734,-0.132 0.734,-0.376C0.734,-0.619 0.596,-0.758 0.393,-0.758C0.19,-0.758 0.052,-0.62 0.052,-0.376C0.052,-0.132 0.19,0.014 0.393,0.014ZM0.393,-0.14C0.295,-0.14 0.235,-0.232 0.235,-0.376C0.235,-0.52 0.295,-0.605 0.393,-0.605C0.491,-0.605 0.552,-0.52 0.552,-0.376C0.552,-0.232 0.491,-0.14 0.393,-0.14Z" style="fill:rgb(234,235,238);fill-rule:nonzero;"/>
            </g>
            <g transform="matrix(85.3333,0,0,85.3333,945.371,347.4)">
                <path d="M0.384,0.014C0.582,0.014 0.682,-0.099 0.682,-0.35L0.682,-0.745L0.51,-0.745L0.51,-0.331C0.51,-0.19 0.465,-0.14 0.384,-0.14C0.302,-0.14 0.26,-0.19 0.26,-0.331L0.26,-0.745L0.082,-0.745L0.082,-0.35C0.082,-0.099 0.185,0.014 0.384,0.014Z" style="fill:rgb(234,235,238);fill-rule:nonzero;"/>
            </g>
            <g transform="matrix(85.3333,0,0,85.3333,1010.48,347.4)">
                <path d="M0.086,-0L0.256,-0L0.256,-0.247C0.256,-0.337 0.241,-0.439 0.233,-0.522L0.238,-0.522L0.311,-0.359L0.495,-0L0.677,-0L0.677,-0.745L0.507,-0.745L0.507,-0.498C0.507,-0.409 0.522,-0.302 0.531,-0.223L0.526,-0.223L0.453,-0.388L0.268,-0.745L0.086,-0.745L0.086,-0Z" style="fill:rgb(234,235,238);fill-rule:nonzero;"/>
            </g>
            <g transform="matrix(85.3333,0,0,85.3333,1075.67,347.4)">
                <path d="M0.086,-0L0.31,-0C0.527,-0 0.677,-0.117 0.677,-0.376C0.677,-0.635 0.527,-0.745 0.3,-0.745L0.086,-0.745L0.086,-0ZM0.265,-0.144L0.265,-0.602L0.289,-0.602C0.409,-0.602 0.494,-0.553 0.494,-0.376C0.494,-0.199 0.409,-0.144 0.289,-0.144L0.265,-0.144Z" style="fill:rgb(234,235,238);fill-rule:nonzero;"/>
            </g>
        </g>
        <g transform="matrix(0.821128,0,0,0.821128,-18.5871,54.7149)">
            <g transform="matrix(85.3333,0,0,85.3333,542,245)">
                <path d="M0.086,-0L0.265,-0L0.265,-0.247L0.352,-0.247C0.51,-0.247 0.646,-0.325 0.646,-0.502C0.646,-0.686 0.511,-0.745 0.348,-0.745L0.086,-0.745L0.086,-0ZM0.265,-0.388L0.265,-0.603L0.338,-0.603C0.424,-0.603 0.472,-0.577 0.472,-0.502C0.472,-0.429 0.43,-0.388 0.343,-0.388L0.265,-0.388Z" style="fill:rgb(49,54,61);fill-rule:nonzero;"/>
            </g>
            <g transform="matrix(85.3333,0,0,85.3333,600.624,245)">
                <path d="M0.393,0.014C0.596,0.014 0.734,-0.132 0.734,-0.376C0.734,-0.619 0.596,-0.758 0.393,-0.758C0.19,-0.758 0.052,-0.62 0.052,-0.376C0.052,-0.132 0.19,0.014 0.393,0.014ZM0.393,-0.14C0.295,-0.14 0.235,-0.232 0.235,-0.376C0.235,-0.52 0.295,-0.605 0.393,-0.605C0.491,-0.605 0.552,-0.52 0.552,-0.376C0.552,-0.232 0.491,-0.14 0.393,-0.14Z" style="fill:rgb(49,54,61);fill-rule:nonzero;"/>
            </g>
            <g transform="matrix(85.3333,0,0,85.3333,667.696,245)">
                <path d="M0.15,-0L0.371,-0L0.436,-0.324C0.447,-0.381 0.456,-0.441 0.466,-0.497L0.47,-0.497C0.477,-0.441 0.487,-0.381 0.499,-0.324L0.566,-0L0.791,-0L0.92,-0.745L0.751,-0.745L0.702,-0.405C0.693,-0.328 0.683,-0.249 0.674,-0.169L0.669,-0.169C0.654,-0.249 0.641,-0.329 0.626,-0.405L0.549,-0.745L0.398,-0.745L0.322,-0.405C0.307,-0.328 0.292,-0.249 0.278,-0.169L0.274,-0.169C0.264,-0.249 0.254,-0.327 0.244,-0.405L0.197,-0.745L0.015,-0.745L0.15,-0Z" style="fill:rgb(49,54,61);fill-rule:nonzero;"/>
            </g>
            <g transform="matrix(85.3333,0,0,85.3333,747.483,245)">
                <path d="M0.086,-0L0.569,-0L0.569,-0.15L0.265,-0.15L0.265,-0.308L0.514,-0.308L0.514,-0.458L0.265,-0.458L0.265,-0.596L0.558,-0.596L0.558,-0.745L0.086,-0.745L0.086,-0Z" style="fill:rgb(49,54,61);fill-rule:nonzero;"/>
            </g>
            <g transform="matrix(85.3333,0,0,85.3333,801.243,245)">
                <path d="M0.086,-0L0.265,-0L0.265,-0.262L0.351,-0.262L0.488,-0L0.688,-0L0.522,-0.295C0.599,-0.331 0.65,-0.401 0.65,-0.51C0.65,-0.69 0.518,-0.745 0.359,-0.745L0.086,-0.745L0.086,-0ZM0.265,-0.403L0.265,-0.603L0.345,-0.603C0.43,-0.603 0.476,-0.58 0.476,-0.51C0.476,-0.44 0.43,-0.403 0.345,-0.403L0.265,-0.403Z" style="fill:rgb(49,54,61);fill-rule:nonzero;"/>
            </g>
            <g transform="matrix(85.3333,0,0,85.3333,542,347.4)">
                <path d="M0.086,-0L0.265,-0L0.265,-0.247L0.352,-0.247C0.51,-0.247 0.646,-0.325 0.646,-0.502C0.646,-0.686 0.511,-0.745 0.348,-0.745L0.086,-0.745L0.086,-0ZM0.265,-0.388L0.265,-0.603L0.338,-0.603C0.424,-0.603 0.472,-0.577 0.472,-0.502C0.472,-0.429 0.43,-0.388 0.343,-0.388L0.265,-0.388Z" style="fill:rgb(49,54,61);fill-rule:nonzero;"/>
            </g>
            <g transform="matrix(85.3333,0,0,85.3333,600.624,347.4)">
                <path d="M0.086,-0L0.555,-0L0.555,-0.15L0.265,-0.15L0.265,-0.745L0.086,-0.745L0.086,-0Z" style="fill:rgb(49,54,61);fill-rule:nonzero;"/>
            </g>
            <g transform="matrix(85.3333,0,0,85.3333,650.885,347.4)">
                <path d="M0.267,-0.372C0.286,-0.446 0.306,-0.533 0.324,-0.611L0.328,-0.611C0.348,-0.535 0.367,-0.446 0.387,-0.372L0.403,-0.309L0.251,-0.309L0.267,-0.372ZM-0.008,-0L0.174,-0L0.217,-0.171L0.437,-0.171L0.48,-0L0.668,-0L0.437,-0.745L0.223,-0.745L-0.008,-0Z" style="fill:rgb(49,54,61);fill-rule:nonzero;"/>
            </g>
            <g transform="matrix(85.3333,0,0,85.3333,705.328,347.4)">
                <path d="M0.215,-0L0.393,-0L0.393,-0.263L0.618,-0.745L0.431,-0.745L0.369,-0.579C0.348,-0.523 0.328,-0.471 0.307,-0.413L0.303,-0.413C0.282,-0.471 0.263,-0.523 0.243,-0.579L0.181,-0.745L-0.009,-0.745L0.215,-0.263L0.215,-0Z" style="fill:rgb(49,54,61);fill-rule:nonzero;"/>
            </g>
            <g transform="matrix(85.3333,0,0,85.3333,755.333,347.4)">
                <path d="M0.421,0.014C0.525,0.014 0.617,-0.027 0.669,-0.077L0.669,-0.425L0.392,-0.425L0.392,-0.279L0.51,-0.279L0.51,-0.159C0.494,-0.147 0.466,-0.14 0.44,-0.14C0.301,-0.14 0.235,-0.226 0.235,-0.374C0.235,-0.519 0.314,-0.605 0.424,-0.605C0.486,-0.605 0.525,-0.58 0.562,-0.547L0.656,-0.661C0.605,-0.712 0.527,-0.758 0.418,-0.758C0.219,-0.758 0.052,-0.616 0.052,-0.368C0.052,-0.116 0.215,0.014 0.421,0.014Z" style="fill:rgb(49,54,61);fill-rule:nonzero;"/>
            </g>
            <g transform="matrix(85.3333,0,0,85.3333,817.883,347.4)">
                <path d="M0.086,-0L0.265,-0L0.265,-0.262L0.351,-0.262L0.488,-0L0.688,-0L0.522,-0.295C0.599,-0.331 0.65,-0.401 0.65,-0.51C0.65,-0.69 0.518,-0.745 0.359,-0.745L0.086,-0.745L0.086,-0ZM0.265,-0.403L0.265,-0.603L0.345,-0.603C0.43,-0.603 0.476,-0.58 0.476,-0.51C0.476,-0.44 0.43,-0.403 0.345,-0.403L0.265,-0.403Z" style="fill:rgb(49,54,61);fill-rule:nonzero;"/>
            </g>
            <g transform="matrix(85.3333,0,0,85.3333,878.299,347.4)">
                <path d="M0.393,0.014C0.596,0.014 0.734,-0.132 0.734,-0.376C0.734,-0.619 0.596,-0.758 0.393,-0.758C0.19,-0.758 0.052,-0.62 0.052,-0.376C0.052,-0.132 0.19,0.014 0.393,0.014ZM0.393,-0.14C0.295,-0.14 0.235,-0.232 0.235,-0.376C0.235,-0.52 0.295,-0.605 0.393,-0.605C0.491,-0.605 0.552,-0.52 0.552,-0.376C0.552,-0.232 0.491,-0.14 0.393,-0.14Z" style="fill:rgb(49,54,61);fill-rule:nonzero;"/>
            </g>
            <g transform="matrix(85.3333,0,0,85.3333,945.371,347.4)">
                <path d="M0.384,0.014C0.582,0.014 0.682,-0.099 0.682,-0.35L0.682,-0.745L0.51,-0.745L0.51,-0.331C0.51,-0.19 0.465,-0.14 0.384,-0.14C0.302,-0.14 0.26,-0.19 0.26,-0.331L0.26,-0.745L0.082,-0.745L0.082,-0.35C0.082,-0.099 0.185,0.014 0.384,0.014Z" style="fill:rgb(49,54,61);fill-rule:nonzero;"/>
            </g>
            <g transform="matrix(85.3333,0,0,85.3333,1010.48,347.4)">
                <path d="M0.086,-0L0.256,-0L0.256,-0.247C0.256,-0.337 0.241,-0.439 0.233,-0.522L0.238,-0.522L0.311,-0.359L0.495,-0L0.677,-0L0.677,-0.745L0.507,-0.745L0.507,-0.498C0.507,-0.409 0.522,-0.302 0.531,-0.223L0.526,-0.223L0.453,-0.388L0.268,-0.745L0.086,-0.745L0.086,-0Z" style="fill:rgb(49,54,61);fill-rule:nonzero;"/>
            </g>
            <g transform="matrix(85.3333,0,0,85.3333,1075.67,347.4)">
                <path d="M0.086,-0L0.31,-0C0.527,-0 0.677,-0.117 0.677,-0.376C0.677,-0.635 0.527,-0.745 0.3,-0.745L0.086,-0.745L0.086,-0ZM0.265,-0.144L0.265,-0.602L0.289,-0.602C0.409,-0.602 0.494,-0.553 0.494,-0.376C0.494,-0.199 0.409,-0.144 0.289,-0.144L0.265,-0.144Z" style="fill:rgb(49,54,61);fill-rule:nonzero;"/>
            </g>
        </g>
        <path d="M440.9,392.113C442.981,392.113 444.623,391.282 445.915,389.794L444.557,388.196C443.594,389.247 442.477,389.904 440.988,389.904C438.141,389.904 436.346,387.56 436.346,383.728C436.346,379.939 438.273,377.617 441.054,377.617C442.368,377.617 443.375,378.208 444.207,379.063L445.586,377.442C444.601,376.371 443.024,375.408 441.01,375.408C436.937,375.408 433.743,378.559 433.743,383.815C433.743,389.094 436.85,392.113 440.9,392.113Z" style="fill:rgb(87,96,109);fill-rule:nonzero;"/>
        <path d="M453.361,392.113C456.34,392.113 459.031,389.816 459.031,385.808C459.031,381.8 456.34,379.481 453.361,379.481C450.382,379.481 447.691,381.8 447.691,385.808C447.691,389.816 450.382,392.113 453.361,392.113ZM453.361,390.057C451.477,390.057 450.294,388.371 450.294,385.808C450.294,383.267 451.477,381.559 453.361,381.559C455.267,381.559 456.45,383.267 456.45,385.808C456.45,388.371 455.267,390.057 453.361,390.057Z" style="fill:rgb(87,96,109);fill-rule:nonzero;"/>
        <path d="M466.149,392.113C467.501,392.113 468.748,391.391 469.645,390.473L469.732,390.473L469.93,391.828L471.994,391.828L471.994,374.379L469.478,374.379L469.478,378.846L469.588,380.837C468.602,380.006 467.726,379.481 466.346,379.481C463.651,379.481 461.18,381.909 461.18,385.807C461.18,389.816 463.126,392.113 466.149,392.113ZM466.74,390.035C464.856,390.035 463.783,388.524 463.783,385.786C463.783,383.179 465.141,381.58 466.828,381.58C467.726,381.58 468.58,381.865 469.478,382.676L469.478,388.568C468.602,389.575 467.748,390.035 466.74,390.035Z" style="fill:rgb(87,96,109);fill-rule:nonzero;"/>
        <path d="M480.798,392.113C482.375,392.113 483.754,391.588 484.87,390.845L483.995,389.246C483.12,389.816 482.2,390.145 481.127,390.145C479.045,390.145 477.599,388.764 477.402,386.463L485.22,386.463C485.285,386.157 485.351,385.676 485.351,385.174C485.351,381.778 483.623,379.481 480.426,379.481C477.621,379.481 474.931,381.909 474.931,385.808C474.931,389.794 477.534,392.113 480.798,392.113ZM477.38,384.714C477.621,382.611 478.958,381.449 480.469,381.449C482.222,381.449 483.164,382.654 483.164,384.714L477.38,384.714Z" style="fill:rgb(87,96,109);fill-rule:nonzero;"/>
        <path d="M489.513,392.113C490.453,392.113 491.197,391.391 491.197,390.362C491.197,389.312 490.453,388.568 489.513,388.568C488.572,388.568 487.828,389.312 487.828,390.362C487.828,391.391 488.572,392.113 489.513,392.113Z" style="fill:rgb(87,96,109);fill-rule:nonzero;"/>
        <path d="M504.424,392.113C507.951,392.113 510.094,390.013 510.094,387.429C510.094,385.064 508.716,383.881 506.812,383.071L504.599,382.129C503.285,381.603 501.992,381.078 501.992,379.676C501.992,378.406 503.066,377.617 504.709,377.617C506.133,377.617 507.25,378.165 508.257,379.063L509.591,377.442C508.366,376.196 506.593,375.408 504.709,375.408C501.642,375.408 499.411,377.311 499.411,379.851C499.411,382.195 501.139,383.421 502.693,384.078L504.928,385.042C506.418,385.699 507.513,386.159 507.513,387.626C507.513,388.984 506.418,389.904 504.468,389.904C502.913,389.904 501.336,389.159 500.177,387.999L498.689,389.751C500.155,391.238 502.211,392.113 504.424,392.113Z" style="fill:rgb(87,96,109);fill-rule:nonzero;"/>
        <path d="M512.922,391.828L515.437,391.828L515.437,383.288C516.489,382.215 517.255,381.646 518.373,381.646C519.797,381.646 520.41,382.478 520.41,384.558L520.41,391.828L522.926,391.828L522.926,384.252C522.926,381.187 521.788,379.481 519.227,379.481C517.584,379.481 516.379,380.378 515.328,381.384L515.437,378.999L515.437,374.379L512.922,374.379L512.922,391.828Z" style="fill:rgb(87,96,109);fill-rule:nonzero;"/>
        <path d="M529.364,392.113C530.805,392.113 532.096,391.391 533.189,390.451L533.277,390.451L533.474,391.828L535.538,391.828L535.538,384.58C535.538,381.384 534.16,379.481 531.161,379.481C529.233,379.481 527.547,380.268 526.3,381.056L527.24,382.763C528.268,382.106 529.452,381.537 530.722,381.537C532.497,381.537 533.001,382.763 533.023,384.164C528.006,384.712 525.819,386.047 525.819,388.631C525.819,390.757 527.284,392.113 529.364,392.113ZM530.131,390.123C529.057,390.123 528.247,389.641 528.247,388.458C528.247,387.1 529.452,386.18 533.023,385.764L533.023,388.721C532.037,389.619 531.182,390.123 530.131,390.123Z" style="fill:rgb(87,96,109);fill-rule:nonzero;"/>
        <path d="M539.11,391.828L541.626,391.828L541.626,384.319C542.37,382.413 543.552,381.734 544.538,381.734C545.02,381.734 545.326,381.799 545.742,381.931L546.202,379.744C545.839,379.569 545.444,379.481 544.853,379.481C543.561,379.481 542.291,380.4 541.437,381.953L541.372,381.953L541.174,379.788L539.11,379.788L539.11,391.828Z" style="fill:rgb(87,96,109);fill-rule:nonzero;"/>
        <path d="M552.838,392.113C554.416,392.113 555.795,391.588 556.91,390.845L556.035,389.246C555.16,389.816 554.24,390.145 553.167,390.145C551.086,390.145 549.64,388.764 549.443,386.463L557.26,386.463C557.326,386.157 557.391,385.676 557.391,385.174C557.391,381.778 555.663,379.481 552.466,379.481C549.662,379.481 546.971,381.909 546.971,385.808C546.971,389.794 549.574,392.113 552.838,392.113ZM549.421,384.714C549.662,382.611 550.998,381.449 552.51,381.449C554.262,381.449 555.204,382.654 555.204,384.714L549.421,384.714Z" style="fill:rgb(87,96,109);fill-rule:nonzero;"/>
        <path d="M561.553,392.113C562.494,392.113 563.238,391.391 563.238,390.362C563.238,389.312 562.494,388.568 561.553,388.568C560.612,388.568 559.868,389.312 559.868,390.362C559.868,391.391 560.612,392.113 561.553,392.113Z" style="fill:rgb(87,96,109);fill-rule:nonzero;"/>
        <path d="M571.868,391.828L581.631,391.828L581.631,389.685L574.405,389.685L574.405,384.471L580.317,384.471L580.317,382.328L574.405,382.328L574.405,377.858L581.39,377.858L581.39,375.715L571.868,375.715L571.868,391.828Z" style="fill:rgb(87,96,109);fill-rule:nonzero;"/>
        <path d="M584.787,391.828L587.302,391.828L587.302,383.288C588.288,382.194 589.186,381.646 589.997,381.646C591.377,381.646 592.013,382.478 592.013,384.558L592.013,391.828L594.528,391.828L594.528,383.288C595.536,382.194 596.412,381.646 597.245,381.646C598.603,381.646 599.261,382.478 599.261,384.558L599.261,391.828L601.776,391.828L601.776,384.252C601.776,381.187 600.595,379.481 598.077,379.481C596.566,379.481 595.339,380.421 594.156,381.69C593.631,380.312 592.625,379.481 590.83,379.481C589.345,379.481 588.142,380.378 587.114,381.471L587.048,381.471L586.851,379.788L584.787,379.788L584.787,391.828Z" style="fill:rgb(87,96,109);fill-rule:nonzero;"/>
        <path d="M605.413,396.711L607.929,396.711L607.929,392.813L607.841,390.757C608.871,391.632 609.944,392.113 611.018,392.113C613.734,392.113 616.206,389.751 616.206,385.611C616.206,381.909 614.5,379.481 611.456,379.481C610.103,379.481 608.791,380.225 607.741,381.099L607.675,381.099L607.478,379.788L605.413,379.788L605.413,396.711ZM610.536,390.035C609.791,390.035 608.871,389.751 607.929,388.94L607.929,383.048C608.937,382.062 609.835,381.58 610.777,381.58C612.792,381.58 613.603,383.136 613.603,385.655C613.603,388.481 612.288,390.035 610.536,390.035Z" style="fill:rgb(87,96,109);fill-rule:nonzero;"/>
        <path d="M624.024,392.113C627.004,392.113 629.694,389.816 629.694,385.808C629.694,381.8 627.004,379.481 624.024,379.481C621.045,379.481 618.354,381.8 618.354,385.808C618.354,389.816 621.045,392.113 624.024,392.113ZM624.024,390.057C622.14,390.057 620.957,388.371 620.957,385.808C620.957,383.267 622.14,381.559 624.024,381.559C625.93,381.559 627.113,383.267 627.113,385.808C627.113,388.371 625.93,390.057 624.024,390.057Z" style="fill:rgb(87,96,109);fill-rule:nonzero;"/>
        <path d="M634.47,391.828L637.382,391.828L638.849,385.897C639.155,384.756 639.374,383.639 639.615,382.391L639.724,382.391C639.987,383.639 640.206,384.734 640.491,385.874L642.023,391.828L645.044,391.828L648.153,379.788L645.789,379.788L644.234,386.29C643.972,387.473 643.775,388.568 643.534,389.729L643.446,389.729C643.161,388.568 642.921,387.473 642.636,386.29L640.907,379.788L638.586,379.788L636.878,386.29C636.594,387.451 636.353,388.568 636.09,389.729L636.002,389.729C635.784,388.568 635.586,387.473 635.346,386.29L633.747,379.788L631.208,379.788L634.47,391.828Z" style="fill:rgb(87,96,109);fill-rule:nonzero;"/>
        <path d="M655.534,392.113C657.111,392.113 658.49,391.588 659.606,390.845L658.731,389.246C657.856,389.816 656.936,390.145 655.863,390.145C653.781,390.145 652.336,388.764 652.138,386.463L659.956,386.463C660.021,386.157 660.087,385.676 660.087,385.174C660.087,381.778 658.359,379.481 655.162,379.481C652.358,379.481 649.667,381.909 649.667,385.808C649.667,389.794 652.27,392.113 655.534,392.113ZM652.117,384.714C652.358,382.611 653.694,381.449 655.205,381.449C656.958,381.449 657.9,382.654 657.9,384.714L652.117,384.714Z" style="fill:rgb(87,96,109);fill-rule:nonzero;"/>
        <path d="M662.892,391.828L665.408,391.828L665.408,384.319C666.152,382.413 667.335,381.734 668.32,381.734C668.802,381.734 669.108,381.799 669.524,381.931L669.984,379.744C669.621,379.569 669.227,379.481 668.636,379.481C667.344,379.481 666.074,380.4 665.22,381.953L665.154,381.953L664.957,379.788L662.892,379.788L662.892,391.828Z" style="fill:rgb(87,96,109);fill-rule:nonzero;"/>
        <path d="M671.562,392.113C672.503,392.113 673.247,391.391 673.247,390.362C673.247,389.312 672.503,388.568 671.562,388.568C670.621,388.568 669.878,389.312 669.878,390.362C669.878,391.391 670.621,392.113 671.562,392.113Z" style="fill:rgb(87,96,109);fill-rule:nonzero;"/>
    </g>
    <g>
        <path d="M253.521,223.32L320,180L253.427,180L133.427,273.608L133.427,301.579L253.521,223.32" style="fill:url(#_Linear19);"/>
        <path d="M355.339,248.908L253.427,180L321.075,180L373.427,219.997L373.427,261.138L355.339,248.908" style="fill:url(#_Linear20);"/>
        <g>
            <g>
                <clipPath id="_clip21">
                    <rect x="169.052" y="215.625" width="168.75" height="168.75"/>
                </clipPath>
                <g clip-path="url(#_clip21)">
                    <path d="M136.439,258.782L189.572,205.65L206.145,222.223L153.012,275.355L136.439,258.782Z" style="fill:url(#_Linear22);"/>
                    <path d="M204.523,157.553L257.655,104.421L274.228,120.994L221.096,174.126L204.523,157.553Z" style="fill:url(#_Linear23);"/>
                    <path d="M151.39,210.686L204.523,157.553L221.096,174.126L167.963,227.259L151.39,210.686Z" style="fill:url(#_Linear24);"/>
                    <path d="M189.572,205.65L242.704,152.517L259.277,169.09L206.145,222.223L189.572,205.65Z" style="fill:url(#_Linear25);"/>
                    <path d="M136.439,258.782L189.572,205.65L206.145,222.223L153.012,275.355L136.439,258.782Z" style="fill:url(#_Linear26);"/>
                    <path d="M151.39,210.686L204.523,157.553L221.096,174.126L167.963,227.259L151.39,210.686Z" style="fill:url(#_Linear27);"/>
                    <path d="M189.572,205.65L242.704,152.517L259.277,169.09L206.145,222.223L189.572,205.65Z" style="fill:url(#_Linear28);"/>
                    <path d="M138.669,289.636L191.801,236.504L208.374,253.077L155.242,306.209L138.669,289.636Z" style="fill:url(#_Linear29);"/>
                    <path d="M176.85,284.601L229.983,231.468L246.556,248.041L193.423,301.173L176.85,284.601Z" style="fill:url(#_Linear30);"/>
                    <path d="M123.718,337.733L176.85,284.601L193.423,301.173L140.291,354.306L123.718,337.733Z" style="fill:url(#_Linear31);"/>
                    <path d="M191.801,236.504L244.934,183.372L261.507,199.945L208.374,253.077L191.801,236.504Z" style="fill:url(#_Linear32);"/>
                    <path d="M229.983,231.468L283.115,178.336L299.688,194.909L246.556,248.041L229.983,231.468Z" style="fill:url(#_Linear33);"/>
                    <path d="M164.768,329.767L217.9,276.635L234.473,293.207L181.341,346.34L164.768,329.767Z" style="fill:url(#_Linear34);"/>
                    <path d="M202.949,324.731L256.082,271.599L272.654,288.171L219.522,341.304L202.949,324.731Z" style="fill:url(#_Linear35);"/>
                    <path d="M149.817,377.863L202.949,324.731L219.522,341.304L166.39,394.436L149.817,377.863Z" style="fill:url(#_Linear36);"/>
                    <path d="M150.214,410.218L203.951,356.481L220.712,373.243L166.975,426.979L150.214,410.218Z" style="fill:url(#_Linear37);"/>
                    <path d="M111.717,383.023L164.849,329.89L181.422,346.463L128.29,399.596L111.717,383.023Z" style="fill:url(#_Linear38);"/>
                    <path d="M271.033,223.502L324.165,170.37L340.738,186.943L287.606,240.075L271.033,223.502Z" style="fill:url(#_Linear39);"/>
                    <path d="M217.9,276.634L271.033,223.502L287.605,240.075L234.473,293.207L217.9,276.634Z" style="fill:url(#_Linear40);"/>
                    <path d="M256.082,271.599L309.214,218.466L325.787,235.039L272.654,288.171L256.082,271.599Z" style="fill:url(#_Linear41);"/>
                    <path d="M308.469,219.211L361.602,166.079L378.174,182.652L325.042,235.784L308.469,219.211Z" style="fill:url(#_Linear42);"/>
                    <path d="M203.495,357.269L256.628,304.136L273.201,320.709L220.068,373.842L203.495,357.269Z" style="fill:url(#_Linear43);"/>
                    <path d="M241.677,352.233L294.809,299.101L311.382,315.674L258.25,368.806L241.677,352.233Z" style="fill:url(#_Linear44);"/>
                    <path d="M188.544,405.366L241.677,352.233L258.249,368.806L205.117,421.938L188.544,405.366Z" style="fill:url(#_Linear45);"/>
                    <path d="M309.76,251.004L362.893,197.872L379.465,214.444L326.333,267.577L309.76,251.004Z" style="fill:url(#_Linear46);"/>
                    <path d="M256.628,304.136L309.76,251.004L326.333,267.577L273.201,320.709L256.628,304.136Z" style="fill:url(#_Linear47);"/>
                    <path d="M294.809,299.1L347.941,245.968L364.514,262.541L311.382,315.673L294.809,299.1Z" style="fill:url(#_Linear48);"/>
                    <path d="M224.861,401.931L277.993,348.798L294.566,365.371L241.434,418.503L224.861,401.931Z" style="fill:url(#_Linear49);"/>
                    <path d="M263.042,396.895L316.175,343.762L332.748,360.335L279.615,413.468L263.042,396.895Z" style="fill:url(#_Linear50);"/>
                    <path d="M331.126,295.666L384.258,242.533L400.831,259.106L347.699,312.239L331.126,295.666Z" style="fill:url(#_Linear51);"/>
                    <path d="M277.994,348.798L331.126,295.666L347.699,312.239L294.566,365.371L277.994,348.798Z" style="fill:url(#_Linear52);"/>
                    <path d="M316.175,343.762L369.307,290.63L385.88,307.203L332.748,360.335L316.175,343.762Z" style="fill:url(#_Linear53);"/>
                    <path d="M224.861,401.931L277.993,348.798L294.566,365.371L241.434,418.503L224.861,401.931Z" style="fill:url(#_Linear54);"/>
                    <path d="M263.042,396.895L316.175,343.762L332.748,360.335L279.615,413.468L263.042,396.895Z" style="fill:url(#_Linear55);"/>
                    <path d="M331.126,295.666L384.258,242.533L400.831,259.106L347.699,312.239L331.126,295.666Z" style="fill:url(#_Linear56);"/>
                    <path d="M277.994,348.798L331.126,295.666L347.699,312.239L294.566,365.371L277.994,348.798Z" style="fill:url(#_Linear57);"/>
                    <path d="M316.175,343.762L369.307,290.63L385.88,307.203L332.748,360.335L316.175,343.762Z" style="fill:url(#_Linear58);"/>
                    <path d="M265.272,427.749L318.404,374.617L334.977,391.189L281.845,444.322L265.272,427.749Z" style="fill:url(#_Linear59);"/>
                    <path d="M318.405,374.617L371.537,321.484L388.11,338.057L334.977,391.189L318.405,374.617Z" style="fill:url(#_Linear60);"/>
                </g>
            </g>
        </g>
        <path d="M294.809,299.1L373.427,219.997L373.427,261.083L311.382,315.673L294.809,299.1Z" style="fill:url(#_Linear61);"/>
        <g>
            <path d="M239.573,301.579C248.372,301.579 254.875,303.537 259.081,307.413C263.287,311.29 265.39,316.694 265.39,323.606C265.39,327.718 264.556,331.594 262.886,335.217C261.215,338.839 258.455,341.776 254.601,344.028C250.748,346.279 245.513,347.395 238.899,347.395L233.119,347.395L233.119,371.479L216.743,371.479L216.743,301.579L239.573,301.579ZM238.996,315.187L233.119,315.187L233.119,333.787L237.454,333.787C240.729,333.787 243.442,333.043 245.594,331.536C247.746,330.048 248.821,327.561 248.821,324.095C248.821,321.237 248.018,319.024 246.413,317.497C244.808,315.95 242.334,315.187 238.996,315.187Z" style="fill:white;fill-rule:nonzero;"/>
            <path d="M300.263,301.579C309.062,301.579 315.564,303.537 319.77,307.413C323.976,311.29 326.079,316.694 326.079,323.606C326.079,327.718 325.245,331.594 323.575,335.217C321.904,338.839 319.144,341.776 315.29,344.028C311.437,346.279 306.202,347.395 299.588,347.395L293.808,347.395L293.808,371.479L277.432,371.479L277.432,301.579L300.263,301.579ZM299.685,315.187L293.808,315.187L293.808,333.787L298.143,333.787C301.419,333.787 304.131,333.043 306.283,331.536C308.435,330.048 309.51,327.561 309.51,324.095C309.51,321.237 308.707,319.024 307.102,317.497C305.497,315.95 303.023,315.187 299.685,315.187Z" style="fill:white;fill-rule:nonzero;"/>
        </g>
        <path d="M242.427,384.375L238.25,416.09L204.613,410.672L133.427,301.579L133.427,273.686L242.427,384.375Z" style="fill:url(#_Linear62);"/>
    </g>
    <defs>
        <linearGradient id="_Linear1" x1="0" y1="0" x2="1" y2="0" gradientUnits="userSpaceOnUse" gradientTransform="matrix(-302.796,420.251,-420.251,-302.796,1156.42,316.111)"><stop offset="0" style="stop-color:rgb(92,158,255);stop-opacity:1"/><stop offset="1" style="stop-color:rgb(50,120,199);stop-opacity:0"/></linearGradient>
        <linearGradient id="_Linear2" x1="0" y1="0" x2="1" y2="0" gradientUnits="userSpaceOnUse" gradientTransform="matrix(-302.796,420.251,-420.251,-302.796,964.831,462.001)"><stop offset="0" style="stop-color:rgb(92,158,255);stop-opacity:1"/><stop offset="1" style="stop-color:rgb(50,120,199);stop-opacity:0"/></linearGradient>
        <linearGradient id="_Linear3" x1="0" y1="0" x2="1" y2="0" gradientUnits="userSpaceOnUse" gradientTransform="matrix(-302.796,420.251,-420.251,-302.796,625.607,509.024)"><stop offset="0" style="stop-color:rgb(92,158,255);stop-opacity:1"/><stop offset="1" style="stop-color:rgb(50,120,199);stop-opacity:0"/></linearGradient>
        <linearGradient id="_Linear4" x1="0" y1="0" x2="1" y2="0" gradientUnits="userSpaceOnUse" gradientTransform="matrix(-151.126,209.748,-209.748,-151.126,808.601,402.869)"><stop offset="0" style="stop-color:rgb(92,158,255);stop-opacity:1"/><stop offset="1" style="stop-color:rgb(50,120,199);stop-opacity:0"/></linearGradient>
        <linearGradient id="_Linear5" x1="0" y1="0" x2="1" y2="0" gradientUnits="userSpaceOnUse" gradientTransform="matrix(-394.079,546.942,-546.942,-394.079,875.557,134.843)"><stop offset="0" style="stop-color:rgb(92,158,255);stop-opacity:1"/><stop offset="1" style="stop-color:rgb(50,120,199);stop-opacity:0"/></linearGradient>
        <linearGradient id="_Linear6" x1="0" y1="0" x2="1" y2="0" gradientUnits="userSpaceOnUse" gradientTransform="matrix(-302.796,420.251,-420.251,-302.796,1191.09,-110.789)"><stop offset="0" style="stop-color:rgb(92,158,255);stop-opacity:1"/><stop offset="1" style="stop-color:rgb(50,120,199);stop-opacity:0"/></linearGradient>
        <linearGradient id="_Linear7" x1="0" y1="0" x2="1" y2="0" gradientUnits="userSpaceOnUse" gradientTransform="matrix(-134.419,186.56,-186.56,-134.419,1153.92,93.3792)"><stop offset="0" style="stop-color:rgb(92,158,255);stop-opacity:1"/><stop offset="1" style="stop-color:rgb(50,120,199);stop-opacity:0"/></linearGradient>
        <linearGradient id="_Linear8" x1="0" y1="0" x2="1" y2="0" gradientUnits="userSpaceOnUse" gradientTransform="matrix(-254.923,353.807,-353.807,-254.923,672.668,256.746)"><stop offset="0" style="stop-color:rgb(92,158,255);stop-opacity:1"/><stop offset="1" style="stop-color:rgb(50,120,199);stop-opacity:0"/></linearGradient>
        <linearGradient id="_Linear9" x1="0" y1="0" x2="1" y2="0" gradientUnits="userSpaceOnUse" gradientTransform="matrix(-302.796,420.251,-420.251,-302.796,1156.42,316.111)"><stop offset="0" style="stop-color:rgb(92,158,255);stop-opacity:1"/><stop offset="1" style="stop-color:rgb(50,120,199);stop-opacity:0"/></linearGradient>
        <linearGradient id="_Linear10" x1="0" y1="0" x2="1" y2="0" gradientUnits="userSpaceOnUse" gradientTransform="matrix(-302.796,420.251,-420.251,-302.796,964.831,462.001)"><stop offset="0" style="stop-color:rgb(92,158,255);stop-opacity:1"/><stop offset="1" style="stop-color:rgb(50,120,199);stop-opacity:0"/></linearGradient>
        <linearGradient id="_Linear11" x1="0" y1="0" x2="1" y2="0" gradientUnits="userSpaceOnUse" gradientTransform="matrix(-302.796,420.251,-420.251,-302.796,625.607,509.024)"><stop offset="0" style="stop-color:rgb(92,158,255);stop-opacity:1"/><stop offset="1" style="stop-color:rgb(50,120,199);stop-opacity:0"/></linearGradient>
        <linearGradient id="_Linear12" x1="0" y1="0" x2="1" y2="0" gradientUnits="userSpaceOnUse" gradientTransform="matrix(-302.796,420.251,-420.251,-302.796,54.6073,94.1321)"><stop offset="0" style="stop-color:rgb(92,158,255);stop-opacity:1"/><stop offset="1" style="stop-color:rgb(50,120,199);stop-opacity:0"/></linearGradient>
        <linearGradient id="_Linear13" x1="0" y1="0" x2="1" y2="0" gradientUnits="userSpaceOnUse" gradientTransform="matrix(-230.512,319.928,-319.928,-230.512,248.571,-84.8052)"><stop offset="0" style="stop-color:rgb(92,158,255);stop-opacity:1"/><stop offset="1" style="stop-color:rgb(50,120,199);stop-opacity:0"/></linearGradient>
        <linearGradient id="_Linear14" x1="0" y1="0" x2="1" y2="0" gradientUnits="userSpaceOnUse" gradientTransform="matrix(-151.126,209.748,-209.748,-151.126,1163,567.614)"><stop offset="0" style="stop-color:rgb(92,158,255);stop-opacity:1"/><stop offset="1" style="stop-color:rgb(50,120,199);stop-opacity:0"/></linearGradient>
        <linearGradient id="_Linear15" x1="0" y1="0" x2="1" y2="0" gradientUnits="userSpaceOnUse" gradientTransform="matrix(-394.079,546.942,-546.942,-394.079,875.557,134.843)"><stop offset="0" style="stop-color:rgb(92,158,255);stop-opacity:1"/><stop offset="1" style="stop-color:rgb(50,120,199);stop-opacity:0"/></linearGradient>
        <linearGradient id="_Linear16" x1="0" y1="0" x2="1" y2="0" gradientUnits="userSpaceOnUse" gradientTransform="matrix(-302.796,420.251,-420.251,-302.796,1191.09,-110.789)"><stop offset="0" style="stop-color:rgb(92,158,255);stop-opacity:1"/><stop offset="1" style="stop-color:rgb(50,120,199);stop-opacity:0"/></linearGradient>
        <linearGradient id="_Linear17" x1="0" y1="0" x2="1" y2="0" gradientUnits="userSpaceOnUse" gradientTransform="matrix(-134.419,186.56,-186.56,-134.419,1153.92,93.3792)"><stop offset="0" style="stop-color:rgb(92,158,255);stop-opacity:1"/><stop offset="1" style="stop-color:rgb(50,120,199);stop-opacity:0"/></linearGradient>
        <linearGradient id="_Linear18" x1="0" y1="0" x2="1" y2="0" gradientUnits="userSpaceOnUse" gradientTransform="matrix(-254.923,353.807,-353.807,-254.923,672.668,256.746)"><stop offset="0" style="stop-color:rgb(92,158,255);stop-opacity:1"/><stop offset="1" style="stop-color:rgb(50,120,199);stop-opacity:0"/></linearGradient>
        <linearGradient id="_Linear19" x1="0" y1="0" x2="1" y2="0" gradientUnits="userSpaceOnUse" gradientTransform="matrix(55.7497,-50.321,50.321,55.7497,228.516,234.806)"><stop offset="0" style="stop-color:rgb(125,70,216);stop-opacity:1"/><stop offset="1" style="stop-color:rgb(0,65,241);stop-opacity:1"/></linearGradient>
        <linearGradient id="_Linear20" x1="0" y1="0" x2="1" y2="0" gradientUnits="userSpaceOnUse" gradientTransform="matrix(-61.9153,-50.026,50.026,-61.9153,354.882,234.324)"><stop offset="0" style="stop-color:rgb(49,120,198);stop-opacity:1"/><stop offset="1" style="stop-color:rgb(0,65,241);stop-opacity:1"/></linearGradient>
        <linearGradient id="_Linear22" x1="0" y1="0" x2="1" y2="0" gradientUnits="userSpaceOnUse" gradientTransform="matrix(53.1323,-53.1323,53.1323,53.1323,144.726,267.069)"><stop offset="0" style="stop-color:rgb(49,120,198);stop-opacity:1"/><stop offset="1" style="stop-color:rgb(92,158,255);stop-opacity:1"/></linearGradient>
        <linearGradient id="_Linear23" x1="0" y1="0" x2="1" y2="0" gradientUnits="userSpaceOnUse" gradientTransform="matrix(53.1323,-53.1323,53.1323,53.1323,212.809,165.84)"><stop offset="0" style="stop-color:rgb(49,120,198);stop-opacity:0"/><stop offset="1" style="stop-color:rgb(92,158,255);stop-opacity:0"/></linearGradient>
        <linearGradient id="_Linear24" x1="0" y1="0" x2="1" y2="0" gradientUnits="userSpaceOnUse" gradientTransform="matrix(53.1323,-53.1323,53.1323,53.1323,159.677,218.972)"><stop offset="0" style="stop-color:rgb(49,120,198);stop-opacity:1"/><stop offset="1" style="stop-color:rgb(92,158,255);stop-opacity:1"/></linearGradient>
        <linearGradient id="_Linear25" x1="0" y1="0" x2="1" y2="0" gradientUnits="userSpaceOnUse" gradientTransform="matrix(53.1323,-53.1323,53.1323,53.1323,197.858,213.936)"><stop offset="0" style="stop-color:rgb(49,120,198);stop-opacity:1"/><stop offset="1" style="stop-color:rgb(92,158,255);stop-opacity:1"/></linearGradient>
        <linearGradient id="_Linear26" x1="0" y1="0" x2="1" y2="0" gradientUnits="userSpaceOnUse" gradientTransform="matrix(53.1323,-53.1323,53.1323,53.1323,144.726,267.069)"><stop offset="0" style="stop-color:rgb(49,120,198);stop-opacity:1"/><stop offset="1" style="stop-color:rgb(92,158,255);stop-opacity:1"/></linearGradient>
        <linearGradient id="_Linear27" x1="0" y1="0" x2="1" y2="0" gradientUnits="userSpaceOnUse" gradientTransform="matrix(53.1323,-53.1323,53.1323,53.1323,159.677,218.972)"><stop offset="0" style="stop-color:rgb(49,120,198);stop-opacity:1"/><stop offset="1" style="stop-color:rgb(92,158,255);stop-opacity:1"/></linearGradient>
        <linearGradient id="_Linear28" x1="0" y1="0" x2="1" y2="0" gradientUnits="userSpaceOnUse" gradientTransform="matrix(53.1323,-53.1323,53.1323,53.1323,197.858,213.936)"><stop offset="0" style="stop-color:rgb(49,120,198);stop-opacity:1"/><stop offset="1" style="stop-color:rgb(92,158,255);stop-opacity:1"/></linearGradient>
        <linearGradient id="_Linear29" x1="0" y1="0" x2="1" y2="0" gradientUnits="userSpaceOnUse" gradientTransform="matrix(53.1323,-53.1323,53.1323,53.1323,146.955,297.923)"><stop offset="0" style="stop-color:rgb(49,120,198);stop-opacity:1"/><stop offset="1" style="stop-color:rgb(92,158,255);stop-opacity:1"/></linearGradient>
        <linearGradient id="_Linear30" x1="0" y1="0" x2="1" y2="0" gradientUnits="userSpaceOnUse" gradientTransform="matrix(53.1323,-53.1323,53.1323,53.1323,185.137,292.887)"><stop offset="0" style="stop-color:rgb(49,120,198);stop-opacity:1"/><stop offset="1" style="stop-color:rgb(92,158,255);stop-opacity:1"/></linearGradient>
        <linearGradient id="_Linear31" x1="0" y1="0" x2="1" y2="0" gradientUnits="userSpaceOnUse" gradientTransform="matrix(53.1323,-53.1323,53.1323,53.1323,132.005,346.019)"><stop offset="0" style="stop-color:rgb(49,120,198);stop-opacity:1"/><stop offset="1" style="stop-color:rgb(92,158,255);stop-opacity:1"/></linearGradient>
        <linearGradient id="_Linear32" x1="0" y1="0" x2="1" y2="0" gradientUnits="userSpaceOnUse" gradientTransform="matrix(53.1323,-53.1323,53.1323,53.1323,200.088,244.79)"><stop offset="0" style="stop-color:rgb(49,120,198);stop-opacity:1"/><stop offset="1" style="stop-color:rgb(92,158,255);stop-opacity:1"/></linearGradient>
        <linearGradient id="_Linear33" x1="0" y1="0" x2="1" y2="0" gradientUnits="userSpaceOnUse" gradientTransform="matrix(53.1323,-53.1323,53.1323,53.1323,238.269,239.755)"><stop offset="0" style="stop-color:rgb(49,120,198);stop-opacity:1"/><stop offset="1" style="stop-color:rgb(92,158,255);stop-opacity:1"/></linearGradient>
        <linearGradient id="_Linear34" x1="0" y1="0" x2="1" y2="0" gradientUnits="userSpaceOnUse" gradientTransform="matrix(53.1323,-53.1323,53.1323,53.1323,173.054,338.053)"><stop offset="0" style="stop-color:rgb(49,120,198);stop-opacity:1"/><stop offset="1" style="stop-color:rgb(92,158,255);stop-opacity:1"/></linearGradient>
        <linearGradient id="_Linear35" x1="0" y1="0" x2="1" y2="0" gradientUnits="userSpaceOnUse" gradientTransform="matrix(53.1323,-53.1323,53.1323,53.1323,211.236,333.017)"><stop offset="0" style="stop-color:rgb(49,120,198);stop-opacity:1"/><stop offset="1" style="stop-color:rgb(92,158,255);stop-opacity:1"/></linearGradient>
        <linearGradient id="_Linear36" x1="0" y1="0" x2="1" y2="0" gradientUnits="userSpaceOnUse" gradientTransform="matrix(53.1323,-53.1323,53.1323,53.1323,158.103,386.15)"><stop offset="0" style="stop-color:rgb(49,120,198);stop-opacity:1"/><stop offset="1" style="stop-color:rgb(92,158,255);stop-opacity:1"/></linearGradient>
        <linearGradient id="_Linear37" x1="0" y1="0" x2="1" y2="0" gradientUnits="userSpaceOnUse" gradientTransform="matrix(53.7367,-53.7367,53.7367,53.7367,158.595,418.599)"><stop offset="0" style="stop-color:rgb(49,120,198);stop-opacity:1"/><stop offset="1" style="stop-color:rgb(92,158,255);stop-opacity:1"/></linearGradient>
        <linearGradient id="_Linear38" x1="0" y1="0" x2="1" y2="0" gradientUnits="userSpaceOnUse" gradientTransform="matrix(53.1323,-53.1323,53.1323,53.1323,120.003,391.309)"><stop offset="0" style="stop-color:rgb(49,120,198);stop-opacity:1"/><stop offset="1" style="stop-color:rgb(92,158,255);stop-opacity:1"/></linearGradient>
        <linearGradient id="_Linear39" x1="0" y1="0" x2="1" y2="0" gradientUnits="userSpaceOnUse" gradientTransform="matrix(53.1323,-53.1323,53.1323,53.1323,279.319,231.788)"><stop offset="0" style="stop-color:rgb(49,120,198);stop-opacity:1"/><stop offset="1" style="stop-color:rgb(92,158,255);stop-opacity:1"/></linearGradient>
        <linearGradient id="_Linear40" x1="0" y1="0" x2="1" y2="0" gradientUnits="userSpaceOnUse" gradientTransform="matrix(53.1323,-53.1323,53.1323,53.1323,226.187,284.921)"><stop offset="0" style="stop-color:rgb(49,120,198);stop-opacity:1"/><stop offset="1" style="stop-color:rgb(92,158,255);stop-opacity:1"/></linearGradient>
        <linearGradient id="_Linear41" x1="0" y1="0" x2="1" y2="0" gradientUnits="userSpaceOnUse" gradientTransform="matrix(53.1323,-53.1323,53.1323,53.1323,264.368,279.885)"><stop offset="0" style="stop-color:rgb(49,120,198);stop-opacity:1"/><stop offset="1" style="stop-color:rgb(92,158,255);stop-opacity:1"/></linearGradient>
        <linearGradient id="_Linear42" x1="0" y1="0" x2="1" y2="0" gradientUnits="userSpaceOnUse" gradientTransform="matrix(53.1323,-53.1323,53.1323,53.1323,316.756,227.497)"><stop offset="0" style="stop-color:rgb(49,120,198);stop-opacity:1"/><stop offset="1" style="stop-color:rgb(92,158,255);stop-opacity:1"/></linearGradient>
        <linearGradient id="_Linear43" x1="0" y1="0" x2="1" y2="0" gradientUnits="userSpaceOnUse" gradientTransform="matrix(53.1323,-53.1323,53.1323,53.1323,211.782,365.555)"><stop offset="0" style="stop-color:rgb(49,120,198);stop-opacity:1"/><stop offset="1" style="stop-color:rgb(92,158,255);stop-opacity:1"/></linearGradient>
        <linearGradient id="_Linear44" x1="0" y1="0" x2="1" y2="0" gradientUnits="userSpaceOnUse" gradientTransform="matrix(53.1323,-53.1323,53.1323,53.1323,249.963,360.52)"><stop offset="0" style="stop-color:rgb(49,120,198);stop-opacity:1"/><stop offset="1" style="stop-color:rgb(92,158,255);stop-opacity:1"/></linearGradient>
        <linearGradient id="_Linear45" x1="0" y1="0" x2="1" y2="0" gradientUnits="userSpaceOnUse" gradientTransform="matrix(53.1323,-53.1323,53.1323,53.1323,196.831,413.652)"><stop offset="0" style="stop-color:rgb(49,120,198);stop-opacity:1"/><stop offset="1" style="stop-color:rgb(92,158,255);stop-opacity:1"/></linearGradient>
        <linearGradient id="_Linear46" x1="0" y1="0" x2="1" y2="0" gradientUnits="userSpaceOnUse" gradientTransform="matrix(53.1323,-53.1323,53.1323,53.1323,318.047,259.29)"><stop offset="0" style="stop-color:rgb(49,120,198);stop-opacity:1"/><stop offset="1" style="stop-color:rgb(92,158,255);stop-opacity:1"/></linearGradient>
        <linearGradient id="_Linear47" x1="0" y1="0" x2="1" y2="0" gradientUnits="userSpaceOnUse" gradientTransform="matrix(53.1323,-53.1323,53.1323,53.1323,264.914,312.423)"><stop offset="0" style="stop-color:rgb(49,120,198);stop-opacity:1"/><stop offset="1" style="stop-color:rgb(92,158,255);stop-opacity:1"/></linearGradient>
        <linearGradient id="_Linear48" x1="0" y1="0" x2="1" y2="0" gradientUnits="userSpaceOnUse" gradientTransform="matrix(53.1323,-53.1323,53.1323,53.1323,303.096,307.387)"><stop offset="0" style="stop-color:rgb(49,120,198);stop-opacity:1"/><stop offset="1" style="stop-color:rgb(92,158,255);stop-opacity:1"/></linearGradient>
        <linearGradient id="_Linear49" x1="0" y1="0" x2="1" y2="0" gradientUnits="userSpaceOnUse" gradientTransform="matrix(53.1323,-53.1323,53.1323,53.1323,233.148,410.217)"><stop offset="0" style="stop-color:rgb(49,120,198);stop-opacity:1"/><stop offset="1" style="stop-color:rgb(92,158,255);stop-opacity:1"/></linearGradient>
        <linearGradient id="_Linear50" x1="0" y1="0" x2="1" y2="0" gradientUnits="userSpaceOnUse" gradientTransform="matrix(53.1323,-53.1323,53.1323,53.1323,271.329,405.181)"><stop offset="0" style="stop-color:rgb(49,120,198);stop-opacity:1"/><stop offset="1" style="stop-color:rgb(92,158,255);stop-opacity:1"/></linearGradient>
        <linearGradient id="_Linear51" x1="0" y1="0" x2="1" y2="0" gradientUnits="userSpaceOnUse" gradientTransform="matrix(53.1323,-53.1323,53.1323,53.1323,339.412,303.952)"><stop offset="0" style="stop-color:rgb(49,120,198);stop-opacity:1"/><stop offset="1" style="stop-color:rgb(92,158,255);stop-opacity:1"/></linearGradient>
        <linearGradient id="_Linear52" x1="0" y1="0" x2="1" y2="0" gradientUnits="userSpaceOnUse" gradientTransform="matrix(53.1323,-53.1323,53.1323,53.1323,286.28,357.085)"><stop offset="0" style="stop-color:rgb(49,120,198);stop-opacity:1"/><stop offset="1" style="stop-color:rgb(92,158,255);stop-opacity:1"/></linearGradient>
        <linearGradient id="_Linear53" x1="0" y1="0" x2="1" y2="0" gradientUnits="userSpaceOnUse" gradientTransform="matrix(53.1323,-53.1323,53.1323,53.1323,324.461,352.049)"><stop offset="0" style="stop-color:rgb(49,120,198);stop-opacity:1"/><stop offset="1" style="stop-color:rgb(92,158,255);stop-opacity:1"/></linearGradient>
        <linearGradient id="_Linear54" x1="0" y1="0" x2="1" y2="0" gradientUnits="userSpaceOnUse" gradientTransform="matrix(53.1323,-53.1323,53.1323,53.1323,233.148,410.217)"><stop offset="0" style="stop-color:rgb(49,120,198);stop-opacity:1"/><stop offset="1" style="stop-color:rgb(92,158,255);stop-opacity:1"/></linearGradient>
        <linearGradient id="_Linear55" x1="0" y1="0" x2="1" y2="0" gradientUnits="userSpaceOnUse" gradientTransform="matrix(53.1323,-53.1323,53.1323,53.1323,271.329,405.181)"><stop offset="0" style="stop-color:rgb(49,120,198);stop-opacity:1"/><stop offset="1" style="stop-color:rgb(92,158,255);stop-opacity:1"/></linearGradient>
        <linearGradient id="_Linear56" x1="0" y1="0" x2="1" y2="0" gradientUnits="userSpaceOnUse" gradientTransform="matrix(53.1323,-53.1323,53.1323,53.1323,339.412,303.952)"><stop offset="0" style="stop-color:rgb(49,120,198);stop-opacity:1"/><stop offset="1" style="stop-color:rgb(92,158,255);stop-opacity:1"/></linearGradient>
        <linearGradient id="_Linear57" x1="0" y1="0" x2="1" y2="0" gradientUnits="userSpaceOnUse" gradientTransform="matrix(53.1323,-53.1323,53.1323,53.1323,286.28,357.085)"><stop offset="0" style="stop-color:rgb(49,120,198);stop-opacity:1"/><stop offset="1" style="stop-color:rgb(92,158,255);stop-opacity:1"/></linearGradient>
        <linearGradient id="_Linear58" x1="0" y1="0" x2="1" y2="0" gradientUnits="userSpaceOnUse" gradientTransform="matrix(53.1323,-53.1323,53.1323,53.1323,324.461,352.049)"><stop offset="0" style="stop-color:rgb(49,120,198);stop-opacity:1"/><stop offset="1" style="stop-color:rgb(92,158,255);stop-opacity:1"/></linearGradient>
        <linearGradient id="_Linear59" x1="0" y1="0" x2="1" y2="0" gradientUnits="userSpaceOnUse" gradientTransform="matrix(53.1323,-53.1323,53.1323,53.1323,273.559,436.035)"><stop offset="0" style="stop-color:rgb(49,120,198);stop-opacity:1"/><stop offset="1" style="stop-color:rgb(92,158,255);stop-opacity:1"/></linearGradient>
        <linearGradient id="_Linear60" x1="0" y1="0" x2="1" y2="0" gradientUnits="userSpaceOnUse" gradientTransform="matrix(53.1323,-53.1323,53.1323,53.1323,326.691,382.903)"><stop offset="0" style="stop-color:rgb(49,120,198);stop-opacity:1"/><stop offset="1" style="stop-color:rgb(92,158,255);stop-opacity:1"/></linearGradient>
        <linearGradient id="_Linear61" x1="0" y1="0" x2="1" y2="0" gradientUnits="userSpaceOnUse" gradientTransform="matrix(70.9812,-72.3039,72.3039,70.9812,303.096,307.387)"><stop offset="0" style="stop-color:rgb(49,120,198);stop-opacity:1"/><stop offset="1" style="stop-color:rgb(92,158,255);stop-opacity:1"/></linearGradient>
        <linearGradient id="_Linear62" x1="0" y1="0" x2="1" y2="0" gradientUnits="userSpaceOnUse" gradientTransform="matrix(53.8265,79.57,-79.57,53.8265,141.456,295.947)"><stop offset="0" style="stop-color:rgb(125,70,216);stop-opacity:1"/><stop offset="1" style="stop-color:rgb(249,224,110);stop-opacity:1"/></linearGradient>
    </defs>
</svg>
